<svg xmlns="http://www.w3.org/2000/svg" viewBox="0 0 900 700" width="900" height="700" fill="none" >
  <defs><linearGradient id="ab" x1="0" y1="0" x2="0" y2="1"><stop offset="0" stop-color="#f6f1e7"/><stop offset="1" stop-color="#efe6d3"/></linearGradient><linearGradient id="abk" x1="0" y1="0" x2="1" y2="1"><stop offset="0" stop-color="#c8a45c"/><stop offset="1" stop-color="#e6c983"/></linearGradient></defs>
  <rect width="900" height="700" rx="18" fill="url(#ab)"/>
  <g transform="translate(326,86) rotate(0)" opacity="0.05"><rect x="-9.0" y="-12.0" width="18" height="24" rx="2" fill="#1b2440"/><line x1="-5.0" y1="-12.0" x2="-5.0" y2="12.0" stroke="#1b2440" stroke-opacity="0.15" stroke-width="1.5"/></g><circle cx="774" cy="428" r="4" fill="#1b2440" opacity="0.05"/><circle cx="219" cy="383" r="6" fill="#1b2440" opacity="0.05"/><g transform="translate(451,127) rotate(120)" opacity="0.05"><rect x="-9.0" y="-19.5" width="18" height="39" rx="2" fill="#1b2440"/><line x1="-5.0" y1="-19.5" x2="-5.0" y2="19.5" stroke="#1b2440" stroke-opacity="0.15" stroke-width="1.5"/></g><circle cx="760" cy="588" r="5" fill="#1b2440" opacity="0.05"/><circle cx="236" cy="550" r="2" fill="#1b2440" opacity="0.05"/><g transform="translate(869,665) rotate(240)" opacity="0.05"><rect x="-9.0" y="-17.0" width="18" height="34" rx="2" fill="#1b2440"/><line x1="-5.0" y1="-17.0" x2="-5.0" y2="17.0" stroke="#1b2440" stroke-opacity="0.15" stroke-width="1.5"/></g><circle cx="849" cy="489" r="6" fill="#1b2440" opacity="0.05"/><circle cx="366" cy="290" r="3" fill="#1b2440" opacity="0.05"/><g transform="translate(310,272) rotate(0)" opacity="0.05"><rect x="-9.0" y="-14.5" width="18" height="29" rx="2" fill="#1b2440"/><line x1="-5.0" y1="-14.5" x2="-5.0" y2="14.5" stroke="#1b2440" stroke-opacity="0.15" stroke-width="1.5"/></g><circle cx="871" cy="47" r="2" fill="#1b2440" opacity="0.05"/><circle cx="239" cy="51" r="4" fill="#1b2440" opacity="0.05"/><g transform="translate(404,292) rotate(120)" opacity="0.05"><rect x="-9.0" y="-12.0" width="18" height="24" rx="2" fill="#1b2440"/><line x1="-5.0" y1="-12.0" x2="-5.0" y2="12.0" stroke="#1b2440" stroke-opacity="0.15" stroke-width="1.5"/></g><circle cx="456" cy="494" r="3" fill="#1b2440" opacity="0.05"/><circle cx="585" cy="29" r="5" fill="#1b2440" opacity="0.05"/><g transform="translate(781,613) rotate(240)" opacity="0.05"><rect x="-9.0" y="-19.5" width="18" height="39" rx="2" fill="#1b2440"/><line x1="-5.0" y1="-19.5" x2="-5.0" y2="19.5" stroke="#1b2440" stroke-opacity="0.15" stroke-width="1.5"/></g><circle cx="334" cy="94" r="4" fill="#1b2440" opacity="0.05"/><circle cx="134" cy="616" r="6" fill="#1b2440" opacity="0.05"/><g transform="translate(371,311) rotate(0)" opacity="0.05"><rect x="-9.0" y="-17.0" width="18" height="34" rx="2" fill="#1b2440"/><line x1="-5.0" y1="-17.0" x2="-5.0" y2="17.0" stroke="#1b2440" stroke-opacity="0.15" stroke-width="1.5"/></g><circle cx="135" cy="275" r="5" fill="#1b2440" opacity="0.05"/><circle cx="516" cy="496" r="2" fill="#1b2440" opacity="0.05"/><g transform="translate(604,338) rotate(120)" opacity="0.05"><rect x="-9.0" y="-14.5" width="18" height="29" rx="2" fill="#1b2440"/><line x1="-5.0" y1="-14.5" x2="-5.0" y2="14.5" stroke="#1b2440" stroke-opacity="0.15" stroke-width="1.5"/></g><circle cx="589" cy="393" r="6" fill="#1b2440" opacity="0.05"/><circle cx="461" cy="537" r="3" fill="#1b2440" opacity="0.05"/><g transform="translate(410,498) rotate(240)" opacity="0.05"><rect x="-9.0" y="-12.0" width="18" height="24" rx="2" fill="#1b2440"/><line x1="-5.0" y1="-12.0" x2="-5.0" y2="12.0" stroke="#1b2440" stroke-opacity="0.15" stroke-width="1.5"/></g><circle cx="426" cy="560" r="2" fill="#1b2440" opacity="0.05"/><circle cx="699" cy="375" r="4" fill="#1b2440" opacity="0.05"/><g transform="translate(319,399) rotate(0)" opacity="0.05"><rect x="-9.0" y="-19.5" width="18" height="39" rx="2" fill="#1b2440"/><line x1="-5.0" y1="-19.5" x2="-5.0" y2="19.5" stroke="#1b2440" stroke-opacity="0.15" stroke-width="1.5"/></g>
  <!-- desk line -->
  <rect x="60" y="520" width="780" height="10" rx="5" fill="#1b2440" opacity="0.12"/>
  <!-- big open book -->
  <g transform="translate(450,300)"><g transform="translate(0,0) scale(1.7)">
      <path d="M0 -6 C -50 -30 -105 -26 -140 -12 L -140 78 C -105 64 -50 68 0 92 C 50 68 105 64 140 78 L 140 -12 C 105 -26 50 -30 0 -6 Z" fill="url(#abk)"/>
      <path d="M0 -2 C -46 -24 -96 -21 -128 -9 L -128 70 C -96 58 -46 61 0 82 C 46 61 96 58 128 70 L 128 -9 C 96 -21 46 -24 0 -2 Z" fill="#ffffff"/>
      <path d="M0 -2 L 0 82" stroke="#1b2440" stroke-opacity="0.25" stroke-width="2"/>
      <line x1="-112" y1="8" x2="-16" y2="2" stroke="#1b2440" stroke-opacity="0.16" stroke-width="3"/><line x1="16" y1="2" x2="112" y2="8" stroke="#1b2440" stroke-opacity="0.16" stroke-width="3"/><line x1="-112" y1="20" x2="-16" y2="14" stroke="#1b2440" stroke-opacity="0.16" stroke-width="3"/><line x1="16" y1="14" x2="112" y2="20" stroke="#1b2440" stroke-opacity="0.16" stroke-width="3"/><line x1="-112" y1="32" x2="-16" y2="26" stroke="#1b2440" stroke-opacity="0.16" stroke-width="3"/><line x1="16" y1="26" x2="112" y2="32" stroke="#1b2440" stroke-opacity="0.16" stroke-width="3"/><line x1="-112" y1="44" x2="-16" y2="38" stroke="#1b2440" stroke-opacity="0.16" stroke-width="3"/><line x1="16" y1="38" x2="112" y2="44" stroke="#1b2440" stroke-opacity="0.16" stroke-width="3"/><line x1="-112" y1="56" x2="-16" y2="50" stroke="#1b2440" stroke-opacity="0.16" stroke-width="3"/><line x1="16" y1="50" x2="112" y2="56" stroke="#1b2440" stroke-opacity="0.16" stroke-width="3"/><line x1="-112" y1="68" x2="-16" y2="62" stroke="#1b2440" stroke-opacity="0.16" stroke-width="3"/><line x1="16" y1="62" x2="112" y2="68" stroke="#1b2440" stroke-opacity="0.16" stroke-width="3"/>
    </g></g>
  <!-- coffee cup -->
  <g transform="translate(720,470)">
    <rect x="0" y="0" width="70" height="52" rx="10" fill="#c96a4b"/>
    <path d="M70 12 h16 a14 14 0 0 1 0 28 h-16" stroke="#c96a4b" stroke-width="8" fill="none"/>
    <ellipse cx="35" cy="0" rx="35" ry="9" fill="#f6f1e7"/>
  </g>
  <!-- pen -->
  <g transform="translate(150,470) rotate(-18)">
    <rect x="0" y="0" width="150" height="12" rx="6" fill="#1b2440"/>
    <polygon points="150,0 172,6 150,12" fill="#c8a45c"/>
  </g>
  <!-- stacked books left -->
  <g transform="translate(120,300)">
    <g transform="translate(0,0)"><rect x="0" y="0" width="46" height="150" rx="3" fill="#6d5b9e"/><rect x="6.44" y="30.0" width="33.12" height="4" rx="2" fill="#f6f1e7" opacity="0.85"/><rect x="6.44" y="51.00000000000001" width="23.92" height="3" rx="1.5" fill="#f6f1e7" opacity="0.5"/><rect x="6.44" y="108.0" width="18.400000000000002" height="8" rx="1.5" fill="#e6c983" opacity="0.8"/></g>
    <g transform="translate(52,20)"><rect x="0" y="0" width="46" height="130" rx="3" fill="#7c9a80"/><rect x="6.44" y="26.0" width="33.12" height="4" rx="2" fill="#f6f1e7" opacity="0.85"/><rect x="6.44" y="44.2" width="23.92" height="3" rx="1.5" fill="#f6f1e7" opacity="0.5"/><rect x="6.44" y="93.6" width="18.400000000000002" height="8" rx="1.5" fill="#e6c983" opacity="0.8"/></g>
  </g>
</svg>
