<svg xmlns="http://www.w3.org/2000/svg" viewBox="0 0 240 240" width="240" height="240" fill="none" >
      <defs><linearGradient id="av2" x1="0" y1="0" x2="1" y2="1"><stop offset="0" stop-color="#6d5b9e"/><stop offset="1" stop-color="#1b2440"/></linearGradient>
        <clipPath id="avc2"><circle cx="120" cy="120" r="120"/></clipPath></defs>
      <g clip-path="url(#avc2)">
        <rect width="240" height="240" fill="url(#av2)"/>
        <path d="M36 240 C 36 168 90 150 120 150 C 150 150 204 168 204 240 Z" fill="#c8a45c"/>
        <path d="M96 150 h48 v18 a24 24 0 0 1 -48 0 Z" fill="#d9a97e"/>
        <circle cx="120" cy="112" r="42" fill="#d9a97e"/>
        <path d="M78 108 a42 42 0 0 1 84 0 c 6 -30 -16 -52 -42 -52 c -26 0 -48 22 -42 52 Z" fill="#241a16"/>
        <path d="M78 104 c -4 14 0 26 6 30 c -10 -2 -12 -22 -6 -30 Z" fill="#241a16"/>
        <path d="M162 104 c 4 14 0 26 -6 30 c 10 -2 12 -22 6 -30 Z" fill="#241a16"/>
      </g>
    </svg>
