<svg xmlns="http://www.w3.org/2000/svg" viewBox="0 0 1200 750" width="1200" height="750" fill="none" >
      <defs><linearGradient id="bl2" x1="0" y1="0" x2="1" y2="1"><stop offset="0" stop-color="#6d5b9e"/><stop offset="1" stop-color="#1b2440"/></linearGradient>
        <radialGradient id="blg2" cx="0.3" cy="0.3" r="0.7">
          <stop offset="0" stop-color="#f6f1e7" stop-opacity="0.2"/>
          <stop offset="1" stop-color="#f6f1e7" stop-opacity="0"/>
        </radialGradient>
      </defs>
      <rect width="1200" height="750" fill="url(#bl2)"/>
      <rect width="1200" height="750" fill="url(#blg2)"/>
      <g transform="translate(978,600) rotate(0)" opacity="0.06"><rect x="-9.0" y="-12.0" width="18" height="24" rx="2" fill="#f6f1e7"/><line x1="-5.0" y1="-12.0" x2="-5.0" y2="12.0" stroke="#1b2440" stroke-opacity="0.15" stroke-width="1.5"/></g><circle cx="1166" cy="370" r="4" fill="#f6f1e7" opacity="0.06"/><circle cx="151" cy="209" r="6" fill="#f6f1e7" opacity="0.06"/><g transform="translate(123,705) rotate(120)" opacity="0.06"><rect x="-9.0" y="-19.5" width="18" height="39" rx="2" fill="#f6f1e7"/><line x1="-5.0" y1="-19.5" x2="-5.0" y2="19.5" stroke="#1b2440" stroke-opacity="0.15" stroke-width="1.5"/></g><circle cx="572" cy="22" r="5" fill="#f6f1e7" opacity="0.06"/><circle cx="88" cy="602" r="2" fill="#f6f1e7" opacity="0.06"/><g transform="translate(561,621) rotate(240)" opacity="0.06"><rect x="-9.0" y="-17.0" width="18" height="34" rx="2" fill="#f6f1e7"/><line x1="-5.0" y1="-17.0" x2="-5.0" y2="17.0" stroke="#1b2440" stroke-opacity="0.15" stroke-width="1.5"/></g><circle cx="581" cy="157" r="6" fill="#f6f1e7" opacity="0.06"/><circle cx="838" cy="344" r="3" fill="#f6f1e7" opacity="0.06"/><g transform="translate(1122,534) rotate(0)" opacity="0.06"><rect x="-9.0" y="-14.5" width="18" height="29" rx="2" fill="#f6f1e7"/><line x1="-5.0" y1="-14.5" x2="-5.0" y2="14.5" stroke="#1b2440" stroke-opacity="0.15" stroke-width="1.5"/></g><circle cx="923" cy="133" r="2" fill="#f6f1e7" opacity="0.06"/><circle cx="31" cy="659" r="4" fill="#f6f1e7" opacity="0.06"/><g transform="translate(336,66) rotate(120)" opacity="0.06"><rect x="-9.0" y="-12.0" width="18" height="24" rx="2" fill="#f6f1e7"/><line x1="-5.0" y1="-12.0" x2="-5.0" y2="12.0" stroke="#1b2440" stroke-opacity="0.15" stroke-width="1.5"/></g><circle cx="428" cy="166" r="3" fill="#f6f1e7" opacity="0.06"/><circle cx="997" cy="245" r="5" fill="#f6f1e7" opacity="0.06"/><g transform="translate(633,711) rotate(240)" opacity="0.06"><rect x="-9.0" y="-19.5" width="18" height="39" rx="2" fill="#f6f1e7"/><line x1="-5.0" y1="-19.5" x2="-5.0" y2="19.5" stroke="#1b2440" stroke-opacity="0.15" stroke-width="1.5"/></g><circle cx="26" cy="688" r="4" fill="#f6f1e7" opacity="0.06"/><circle cx="166" cy="248" r="6" fill="#f6f1e7" opacity="0.06"/><g transform="translate(543,207) rotate(0)" opacity="0.06"><rect x="-9.0" y="-17.0" width="18" height="34" rx="2" fill="#f6f1e7"/><line x1="-5.0" y1="-17.0" x2="-5.0" y2="17.0" stroke="#1b2440" stroke-opacity="0.15" stroke-width="1.5"/></g><circle cx="947" cy="313" r="5" fill="#f6f1e7" opacity="0.06"/><circle cx="868" cy="710" r="2" fill="#f6f1e7" opacity="0.06"/><g transform="translate(96,30) rotate(120)" opacity="0.06"><rect x="-9.0" y="-14.5" width="18" height="29" rx="2" fill="#f6f1e7"/><line x1="-5.0" y1="-14.5" x2="-5.0" y2="14.5" stroke="#1b2440" stroke-opacity="0.15" stroke-width="1.5"/></g><circle cx="521" cy="19" r="6" fill="#f6f1e7" opacity="0.06"/><circle cx="733" cy="215" r="3" fill="#f6f1e7" opacity="0.06"/><g transform="translate(222,132) rotate(240)" opacity="0.06"><rect x="-9.0" y="-12.0" width="18" height="24" rx="2" fill="#f6f1e7"/><line x1="-5.0" y1="-12.0" x2="-5.0" y2="12.0" stroke="#1b2440" stroke-opacity="0.15" stroke-width="1.5"/></g><circle cx="1178" cy="262" r="2" fill="#f6f1e7" opacity="0.06"/><circle cx="691" cy="431" r="4" fill="#f6f1e7" opacity="0.06"/><g transform="translate(951,417) rotate(0)" opacity="0.06"><rect x="-9.0" y="-19.5" width="18" height="39" rx="2" fill="#f6f1e7"/><line x1="-5.0" y1="-19.5" x2="-5.0" y2="19.5" stroke="#1b2440" stroke-opacity="0.15" stroke-width="1.5"/></g>
      <g transform="translate(430,250)"><g transform="translate(0,0)"><rect x="0" y="0" width="60" height="220" rx="3" fill="#c96a4b"/><rect x="8.4" y="44.0" width="43.199999999999996" height="4" rx="2" fill="#f6f1e7" opacity="0.85"/><rect x="8.4" y="74.80000000000001" width="31.200000000000003" height="3" rx="1.5" fill="#f6f1e7" opacity="0.5"/><rect x="8.4" y="158.4" width="24.0" height="8" rx="1.5" fill="#e6c983" opacity="0.8"/></g><g transform="translate(80,30)"><rect x="0" y="0" width="60" height="190" rx="3" fill="#7c9a80"/><rect x="8.4" y="38.0" width="43.199999999999996" height="4" rx="2" fill="#f6f1e7" opacity="0.85"/><rect x="8.4" y="64.60000000000001" width="31.200000000000003" height="3" rx="1.5" fill="#f6f1e7" opacity="0.5"/><rect x="8.4" y="136.79999999999998" width="24.0" height="8" rx="1.5" fill="#e6c983" opacity="0.8"/></g><g transform="translate(160,10)"><rect x="0" y="0" width="60" height="210" rx="3" fill="#c8a45c"/><rect x="8.4" y="42.0" width="43.199999999999996" height="4" rx="2" fill="#1b2440" opacity="0.85"/><rect x="8.4" y="71.4" width="31.200000000000003" height="3" rx="1.5" fill="#1b2440" opacity="0.5"/><rect x="8.4" y="151.2" width="24.0" height="8" rx="1.5" fill="#e6c983" opacity="0.8"/></g><g transform="translate(240,40)"><rect x="0" y="0" width="60" height="180" rx="3" fill="#6d5b9e"/><rect x="8.4" y="36.0" width="43.199999999999996" height="4" rx="2" fill="#f6f1e7" opacity="0.85"/><rect x="8.4" y="61.2" width="31.200000000000003" height="3" rx="1.5" fill="#f6f1e7" opacity="0.5"/><rect x="8.4" y="129.6" width="24.0" height="8" rx="1.5" fill="#e6c983" opacity="0.8"/></g></g>
    </svg>
