<svg xmlns="http://www.w3.org/2000/svg" viewBox="0 0 1200 750" width="1200" height="750" fill="none" >
      <defs><linearGradient id="bl1" x1="0" y1="0" x2="1" y2="1"><stop offset="0" stop-color="#2a3763"/><stop offset="1" stop-color="#1b2440"/></linearGradient>
        <radialGradient id="blg1" cx="0.3" cy="0.3" r="0.7">
          <stop offset="0" stop-color="#f6f1e7" stop-opacity="0.2"/>
          <stop offset="1" stop-color="#f6f1e7" stop-opacity="0"/>
        </radialGradient>
      </defs>
      <rect width="1200" height="750" fill="url(#bl1)"/>
      <rect width="1200" height="750" fill="url(#blg1)"/>
      <g transform="translate(197,283) rotate(0)" opacity="0.06"><rect x="-9.0" y="-12.0" width="18" height="24" rx="2" fill="#f6f1e7"/><line x1="-5.0" y1="-12.0" x2="-5.0" y2="12.0" stroke="#1b2440" stroke-opacity="0.15" stroke-width="1.5"/></g><circle cx="915" cy="69" r="4" fill="#f6f1e7" opacity="0.06"/><circle cx="330" cy="6" r="6" fill="#f6f1e7" opacity="0.06"/><g transform="translate(832,446) rotate(120)" opacity="0.06"><rect x="-9.0" y="-19.5" width="18" height="39" rx="2" fill="#f6f1e7"/><line x1="-5.0" y1="-19.5" x2="-5.0" y2="19.5" stroke="#1b2440" stroke-opacity="0.15" stroke-width="1.5"/></g><circle cx="511" cy="545" r="5" fill="#f6f1e7" opacity="0.06"/><circle cx="557" cy="571" r="2" fill="#f6f1e7" opacity="0.06"/><g transform="translate(260,478) rotate(240)" opacity="0.06"><rect x="-9.0" y="-17.0" width="18" height="34" rx="2" fill="#f6f1e7"/><line x1="-5.0" y1="-17.0" x2="-5.0" y2="17.0" stroke="#1b2440" stroke-opacity="0.15" stroke-width="1.5"/></g><circle cx="810" cy="78" r="6" fill="#f6f1e7" opacity="0.06"/><circle cx="297" cy="657" r="3" fill="#f6f1e7" opacity="0.06"/><g transform="translate(1111,623) rotate(0)" opacity="0.06"><rect x="-9.0" y="-14.5" width="18" height="29" rx="2" fill="#f6f1e7"/><line x1="-5.0" y1="-14.5" x2="-5.0" y2="14.5" stroke="#1b2440" stroke-opacity="0.15" stroke-width="1.5"/></g><circle cx="142" cy="350" r="2" fill="#f6f1e7" opacity="0.06"/><circle cx="980" cy="160" r="4" fill="#f6f1e7" opacity="0.06"/><g transform="translate(515,619) rotate(120)" opacity="0.06"><rect x="-9.0" y="-12.0" width="18" height="24" rx="2" fill="#f6f1e7"/><line x1="-5.0" y1="-12.0" x2="-5.0" y2="12.0" stroke="#1b2440" stroke-opacity="0.15" stroke-width="1.5"/></g><circle cx="1137" cy="225" r="3" fill="#f6f1e7" opacity="0.06"/><circle cx="936" cy="372" r="5" fill="#f6f1e7" opacity="0.06"/><g transform="translate(1102,692) rotate(240)" opacity="0.06"><rect x="-9.0" y="-19.5" width="18" height="39" rx="2" fill="#f6f1e7"/><line x1="-5.0" y1="-19.5" x2="-5.0" y2="19.5" stroke="#1b2440" stroke-opacity="0.15" stroke-width="1.5"/></g><circle cx="925" cy="431" r="4" fill="#f6f1e7" opacity="0.06"/><circle cx="395" cy="127" r="6" fill="#f6f1e7" opacity="0.06"/><g transform="translate(2,544) rotate(0)" opacity="0.06"><rect x="-9.0" y="-17.0" width="18" height="34" rx="2" fill="#f6f1e7"/><line x1="-5.0" y1="-17.0" x2="-5.0" y2="17.0" stroke="#1b2440" stroke-opacity="0.15" stroke-width="1.5"/></g><circle cx="936" cy="174" r="5" fill="#f6f1e7" opacity="0.06"/><circle cx="87" cy="93" r="2" fill="#f6f1e7" opacity="0.06"/><g transform="translate(1045,329) rotate(120)" opacity="0.06"><rect x="-9.0" y="-14.5" width="18" height="29" rx="2" fill="#f6f1e7"/><line x1="-5.0" y1="-14.5" x2="-5.0" y2="14.5" stroke="#1b2440" stroke-opacity="0.15" stroke-width="1.5"/></g><circle cx="700" cy="116" r="6" fill="#f6f1e7" opacity="0.06"/><circle cx="242" cy="106" r="3" fill="#f6f1e7" opacity="0.06"/><g transform="translate(161,355) rotate(240)" opacity="0.06"><rect x="-9.0" y="-12.0" width="18" height="24" rx="2" fill="#f6f1e7"/><line x1="-5.0" y1="-12.0" x2="-5.0" y2="12.0" stroke="#1b2440" stroke-opacity="0.15" stroke-width="1.5"/></g><circle cx="447" cy="81" r="2" fill="#f6f1e7" opacity="0.06"/><circle cx="390" cy="588" r="4" fill="#f6f1e7" opacity="0.06"/><g transform="translate(1180,488) rotate(0)" opacity="0.06"><rect x="-9.0" y="-19.5" width="18" height="39" rx="2" fill="#f6f1e7"/><line x1="-5.0" y1="-19.5" x2="-5.0" y2="19.5" stroke="#1b2440" stroke-opacity="0.15" stroke-width="1.5"/></g>
      <g transform="translate(600,375)"><g transform="translate(0,-40) scale(1.3)">
      <path d="M0 -6 C -50 -30 -105 -26 -140 -12 L -140 78 C -105 64 -50 68 0 92 C 50 68 105 64 140 78 L 140 -12 C 105 -26 50 -30 0 -6 Z" fill="#c8a45c"/>
      <path d="M0 -2 C -46 -24 -96 -21 -128 -9 L -128 70 C -96 58 -46 61 0 82 C 46 61 96 58 128 70 L 128 -9 C 96 -21 46 -24 0 -2 Z" fill="#f6f1e7"/>
      <path d="M0 -2 L 0 82" stroke="#1b2440" stroke-opacity="0.25" stroke-width="2"/>
      <line x1="-112" y1="8" x2="-16" y2="2" stroke="#1b2440" stroke-opacity="0.16" stroke-width="3"/><line x1="16" y1="2" x2="112" y2="8" stroke="#1b2440" stroke-opacity="0.16" stroke-width="3"/><line x1="-112" y1="20" x2="-16" y2="14" stroke="#1b2440" stroke-opacity="0.16" stroke-width="3"/><line x1="16" y1="14" x2="112" y2="20" stroke="#1b2440" stroke-opacity="0.16" stroke-width="3"/><line x1="-112" y1="32" x2="-16" y2="26" stroke="#1b2440" stroke-opacity="0.16" stroke-width="3"/><line x1="16" y1="26" x2="112" y2="32" stroke="#1b2440" stroke-opacity="0.16" stroke-width="3"/><line x1="-112" y1="44" x2="-16" y2="38" stroke="#1b2440" stroke-opacity="0.16" stroke-width="3"/><line x1="16" y1="38" x2="112" y2="44" stroke="#1b2440" stroke-opacity="0.16" stroke-width="3"/><line x1="-112" y1="56" x2="-16" y2="50" stroke="#1b2440" stroke-opacity="0.16" stroke-width="3"/><line x1="16" y1="50" x2="112" y2="56" stroke="#1b2440" stroke-opacity="0.16" stroke-width="3"/><line x1="-112" y1="68" x2="-16" y2="62" stroke="#1b2440" stroke-opacity="0.16" stroke-width="3"/><line x1="16" y1="62" x2="112" y2="68" stroke="#1b2440" stroke-opacity="0.16" stroke-width="3"/>
    </g></g>
    </svg>
