<svg xmlns="http://www.w3.org/2000/svg" viewBox="0 0 1200 750" width="1200" height="750" fill="none" >
      <defs><linearGradient id="bl3" x1="0" y1="0" x2="1" y2="1"><stop offset="0" stop-color="#3f8a8f"/><stop offset="1" stop-color="#2a3763"/></linearGradient>
        <radialGradient id="blg3" cx="0.3" cy="0.3" r="0.7">
          <stop offset="0" stop-color="#f6f1e7" stop-opacity="0.2"/>
          <stop offset="1" stop-color="#f6f1e7" stop-opacity="0"/>
        </radialGradient>
      </defs>
      <rect width="1200" height="750" fill="url(#bl3)"/>
      <rect width="1200" height="750" fill="url(#blg3)"/>
      <g transform="translate(979,707) rotate(0)" opacity="0.06"><rect x="-9.0" y="-12.0" width="18" height="24" rx="2" fill="#f6f1e7"/><line x1="-5.0" y1="-12.0" x2="-5.0" y2="12.0" stroke="#1b2440" stroke-opacity="0.15" stroke-width="1.5"/></g><circle cx="37" cy="41" r="4" fill="#f6f1e7" opacity="0.06"/><circle cx="392" cy="22" r="6" fill="#f6f1e7" opacity="0.06"/><g transform="translate(434,544) rotate(120)" opacity="0.06"><rect x="-9.0" y="-19.5" width="18" height="39" rx="2" fill="#f6f1e7"/><line x1="-5.0" y1="-19.5" x2="-5.0" y2="19.5" stroke="#1b2440" stroke-opacity="0.15" stroke-width="1.5"/></g><circle cx="1053" cy="489" r="5" fill="#f6f1e7" opacity="0.06"/><circle cx="639" cy="603" r="2" fill="#f6f1e7" opacity="0.06"/><g transform="translate(82,674) rotate(240)" opacity="0.06"><rect x="-9.0" y="-17.0" width="18" height="34" rx="2" fill="#f6f1e7"/><line x1="-5.0" y1="-17.0" x2="-5.0" y2="17.0" stroke="#1b2440" stroke-opacity="0.15" stroke-width="1.5"/></g><circle cx="172" cy="716" r="6" fill="#f6f1e7" opacity="0.06"/><circle cx="599" cy="721" r="3" fill="#f6f1e7" opacity="0.06"/><g transform="translate(953,265) rotate(0)" opacity="0.06"><rect x="-9.0" y="-14.5" width="18" height="29" rx="2" fill="#f6f1e7"/><line x1="-5.0" y1="-14.5" x2="-5.0" y2="14.5" stroke="#1b2440" stroke-opacity="0.15" stroke-width="1.5"/></g><circle cx="924" cy="126" r="2" fill="#f6f1e7" opacity="0.06"/><circle cx="102" cy="288" r="4" fill="#f6f1e7" opacity="0.06"/><g transform="translate(577,653) rotate(120)" opacity="0.06"><rect x="-9.0" y="-12.0" width="18" height="24" rx="2" fill="#f6f1e7"/><line x1="-5.0" y1="-12.0" x2="-5.0" y2="12.0" stroke="#1b2440" stroke-opacity="0.15" stroke-width="1.5"/></g><circle cx="739" cy="527" r="3" fill="#f6f1e7" opacity="0.06"/><circle cx="278" cy="628" r="5" fill="#f6f1e7" opacity="0.06"/><g transform="translate(1184,10) rotate(240)" opacity="0.06"><rect x="-9.0" y="-19.5" width="18" height="39" rx="2" fill="#f6f1e7"/><line x1="-5.0" y1="-19.5" x2="-5.0" y2="19.5" stroke="#1b2440" stroke-opacity="0.15" stroke-width="1.5"/></g><circle cx="747" cy="285" r="4" fill="#f6f1e7" opacity="0.06"/><circle cx="957" cy="639" r="6" fill="#f6f1e7" opacity="0.06"/><g transform="translate(304,680) rotate(0)" opacity="0.06"><rect x="-9.0" y="-17.0" width="18" height="34" rx="2" fill="#f6f1e7"/><line x1="-5.0" y1="-17.0" x2="-5.0" y2="17.0" stroke="#1b2440" stroke-opacity="0.15" stroke-width="1.5"/></g><circle cx="778" cy="632" r="5" fill="#f6f1e7" opacity="0.06"/><circle cx="869" cy="367" r="2" fill="#f6f1e7" opacity="0.06"/><g transform="translate(167,601) rotate(120)" opacity="0.06"><rect x="-9.0" y="-14.5" width="18" height="29" rx="2" fill="#f6f1e7"/><line x1="-5.0" y1="-14.5" x2="-5.0" y2="14.5" stroke="#1b2440" stroke-opacity="0.15" stroke-width="1.5"/></g><circle cx="762" cy="282" r="6" fill="#f6f1e7" opacity="0.06"/><circle cx="1044" cy="654" r="3" fill="#f6f1e7" opacity="0.06"/><g transform="translate(703,149) rotate(240)" opacity="0.06"><rect x="-9.0" y="-12.0" width="18" height="24" rx="2" fill="#f6f1e7"/><line x1="-5.0" y1="-12.0" x2="-5.0" y2="12.0" stroke="#1b2440" stroke-opacity="0.15" stroke-width="1.5"/></g><circle cx="529" cy="413" r="2" fill="#f6f1e7" opacity="0.06"/><circle cx="212" cy="184" r="4" fill="#f6f1e7" opacity="0.06"/><g transform="translate(542,76) rotate(0)" opacity="0.06"><rect x="-9.0" y="-19.5" width="18" height="39" rx="2" fill="#f6f1e7"/><line x1="-5.0" y1="-19.5" x2="-5.0" y2="19.5" stroke="#1b2440" stroke-opacity="0.15" stroke-width="1.5"/></g>
      <g transform="translate(520,230) rotate(-12)"><rect x="0" y="0" width="220" height="14" rx="7" fill="#f6f1e7"/><polygon points="220,0 254,7 220,14" fill="#c8a45c"/></g><path d="M300 520 Q600 430 900 520" stroke="#f6f1e7" stroke-opacity="0.3" stroke-width="8" fill="none"/>
    </svg>
