<svg xmlns="http://www.w3.org/2000/svg" viewBox="0 0 1600 500" width="1600" height="500" fill="none" >
  <defs><linearGradient id="cg" x1="0" y1="0" x2="1" y2="0"><stop offset="0" stop-color="#2a3763"/><stop offset="1" stop-color="#1b2440"/></linearGradient></defs>
  <rect width="1600" height="500" fill="url(#cg)"/>
  <g transform="translate(1274,322) rotate(0)" opacity="0.07"><rect x="-9.0" y="-12.0" width="18" height="24" rx="2" fill="#e6c983"/><line x1="-5.0" y1="-12.0" x2="-5.0" y2="12.0" stroke="#1b2440" stroke-opacity="0.15" stroke-width="1.5"/></g><circle cx="982" cy="136" r="4" fill="#e6c983" opacity="0.07"/><circle cx="1087" cy="307" r="6" fill="#e6c983" opacity="0.07"/><g transform="translate(579,399) rotate(120)" opacity="0.07"><rect x="-9.0" y="-19.5" width="18" height="39" rx="2" fill="#e6c983"/><line x1="-5.0" y1="-19.5" x2="-5.0" y2="19.5" stroke="#1b2440" stroke-opacity="0.15" stroke-width="1.5"/></g><circle cx="1348" cy="304" r="5" fill="#e6c983" opacity="0.07"/><circle cx="1584" cy="298" r="2" fill="#e6c983" opacity="0.07"/><g transform="translate(777,9) rotate(240)" opacity="0.07"><rect x="-9.0" y="-17.0" width="18" height="34" rx="2" fill="#e6c983"/><line x1="-5.0" y1="-17.0" x2="-5.0" y2="17.0" stroke="#1b2440" stroke-opacity="0.15" stroke-width="1.5"/></g><circle cx="1117" cy="221" r="6" fill="#e6c983" opacity="0.07"/><circle cx="1294" cy="486" r="3" fill="#e6c983" opacity="0.07"/><g transform="translate(1098,60) rotate(0)" opacity="0.07"><rect x="-9.0" y="-14.5" width="18" height="29" rx="2" fill="#e6c983"/><line x1="-5.0" y1="-14.5" x2="-5.0" y2="14.5" stroke="#1b2440" stroke-opacity="0.15" stroke-width="1.5"/></g><circle cx="19" cy="11" r="2" fill="#e6c983" opacity="0.07"/><circle cx="247" cy="443" r="4" fill="#e6c983" opacity="0.07"/><g transform="translate(472,368) rotate(120)" opacity="0.07"><rect x="-9.0" y="-12.0" width="18" height="24" rx="2" fill="#e6c983"/><line x1="-5.0" y1="-12.0" x2="-5.0" y2="12.0" stroke="#1b2440" stroke-opacity="0.15" stroke-width="1.5"/></g><circle cx="484" cy="422" r="3" fill="#e6c983" opacity="0.07"/><circle cx="1373" cy="313" r="5" fill="#e6c983" opacity="0.07"/><g transform="translate(529,65) rotate(240)" opacity="0.07"><rect x="-9.0" y="-19.5" width="18" height="39" rx="2" fill="#e6c983"/><line x1="-5.0" y1="-19.5" x2="-5.0" y2="19.5" stroke="#1b2440" stroke-opacity="0.15" stroke-width="1.5"/></g><circle cx="1442" cy="450" r="4" fill="#e6c983" opacity="0.07"/><circle cx="702" cy="384" r="6" fill="#e6c983" opacity="0.07"/><g transform="translate(999,415) rotate(0)" opacity="0.07"><rect x="-9.0" y="-17.0" width="18" height="34" rx="2" fill="#e6c983"/><line x1="-5.0" y1="-17.0" x2="-5.0" y2="17.0" stroke="#1b2440" stroke-opacity="0.15" stroke-width="1.5"/></g><circle cx="1323" cy="87" r="5" fill="#e6c983" opacity="0.07"/><circle cx="364" cy="232" r="2" fill="#e6c983" opacity="0.07"/><g transform="translate(1112,446) rotate(120)" opacity="0.07"><rect x="-9.0" y="-14.5" width="18" height="29" rx="2" fill="#e6c983"/><line x1="-5.0" y1="-14.5" x2="-5.0" y2="14.5" stroke="#1b2440" stroke-opacity="0.15" stroke-width="1.5"/></g><circle cx="1457" cy="317" r="6" fill="#e6c983" opacity="0.07"/><circle cx="389" cy="9" r="3" fill="#e6c983" opacity="0.07"/><g transform="translate(1398,214) rotate(240)" opacity="0.07"><rect x="-9.0" y="-12.0" width="18" height="24" rx="2" fill="#e6c983"/><line x1="-5.0" y1="-12.0" x2="-5.0" y2="12.0" stroke="#1b2440" stroke-opacity="0.15" stroke-width="1.5"/></g><circle cx="1074" cy="108" r="2" fill="#e6c983" opacity="0.07"/><circle cx="507" cy="19" r="4" fill="#e6c983" opacity="0.07"/><g transform="translate(287,331) rotate(0)" opacity="0.07"><rect x="-9.0" y="-19.5" width="18" height="39" rx="2" fill="#e6c983"/><line x1="-5.0" y1="-19.5" x2="-5.0" y2="19.5" stroke="#1b2440" stroke-opacity="0.15" stroke-width="1.5"/></g>
  <circle cx="130" cy="250" r="220" stroke="#c8a45c" stroke-opacity="0.14" stroke-width="2"/>
  <g transform="translate(150,250)"><g transform="translate(0,-30) scale(0.9)">
      <path d="M0 -6 C -50 -30 -105 -26 -140 -12 L -140 78 C -105 64 -50 68 0 92 C 50 68 105 64 140 78 L 140 -12 C 105 -26 50 -30 0 -6 Z" fill="#c8a45c"/>
      <path d="M0 -2 C -46 -24 -96 -21 -128 -9 L -128 70 C -96 58 -46 61 0 82 C 46 61 96 58 128 70 L 128 -9 C 96 -21 46 -24 0 -2 Z" fill="#f6f1e7"/>
      <path d="M0 -2 L 0 82" stroke="#1b2440" stroke-opacity="0.25" stroke-width="2"/>
      <line x1="-112" y1="8" x2="-16" y2="2" stroke="#1b2440" stroke-opacity="0.16" stroke-width="3"/><line x1="16" y1="2" x2="112" y2="8" stroke="#1b2440" stroke-opacity="0.16" stroke-width="3"/><line x1="-112" y1="20" x2="-16" y2="14" stroke="#1b2440" stroke-opacity="0.16" stroke-width="3"/><line x1="16" y1="14" x2="112" y2="20" stroke="#1b2440" stroke-opacity="0.16" stroke-width="3"/><line x1="-112" y1="32" x2="-16" y2="26" stroke="#1b2440" stroke-opacity="0.16" stroke-width="3"/><line x1="16" y1="26" x2="112" y2="32" stroke="#1b2440" stroke-opacity="0.16" stroke-width="3"/><line x1="-112" y1="44" x2="-16" y2="38" stroke="#1b2440" stroke-opacity="0.16" stroke-width="3"/><line x1="16" y1="38" x2="112" y2="44" stroke="#1b2440" stroke-opacity="0.16" stroke-width="3"/><line x1="-112" y1="56" x2="-16" y2="50" stroke="#1b2440" stroke-opacity="0.16" stroke-width="3"/><line x1="16" y1="50" x2="112" y2="56" stroke="#1b2440" stroke-opacity="0.16" stroke-width="3"/><line x1="-112" y1="68" x2="-16" y2="62" stroke="#1b2440" stroke-opacity="0.16" stroke-width="3"/><line x1="16" y1="62" x2="112" y2="68" stroke="#1b2440" stroke-opacity="0.16" stroke-width="3"/>
    </g></g>
  <g transform="translate(1440,250)"><g transform="translate(0,-30) scale(0.9)">
      <path d="M0 -6 C -50 -30 -105 -26 -140 -12 L -140 78 C -105 64 -50 68 0 92 C 50 68 105 64 140 78 L 140 -12 C 105 -26 50 -30 0 -6 Z" fill="#c96a4b"/>
      <path d="M0 -2 C -46 -24 -96 -21 -128 -9 L -128 70 C -96 58 -46 61 0 82 C 46 61 96 58 128 70 L 128 -9 C 96 -21 46 -24 0 -2 Z" fill="#f6f1e7"/>
      <path d="M0 -2 L 0 82" stroke="#1b2440" stroke-opacity="0.25" stroke-width="2"/>
      <line x1="-112" y1="8" x2="-16" y2="2" stroke="#1b2440" stroke-opacity="0.16" stroke-width="3"/><line x1="16" y1="2" x2="112" y2="8" stroke="#1b2440" stroke-opacity="0.16" stroke-width="3"/><line x1="-112" y1="20" x2="-16" y2="14" stroke="#1b2440" stroke-opacity="0.16" stroke-width="3"/><line x1="16" y1="14" x2="112" y2="20" stroke="#1b2440" stroke-opacity="0.16" stroke-width="3"/><line x1="-112" y1="32" x2="-16" y2="26" stroke="#1b2440" stroke-opacity="0.16" stroke-width="3"/><line x1="16" y1="26" x2="112" y2="32" stroke="#1b2440" stroke-opacity="0.16" stroke-width="3"/><line x1="-112" y1="44" x2="-16" y2="38" stroke="#1b2440" stroke-opacity="0.16" stroke-width="3"/><line x1="16" y1="38" x2="112" y2="44" stroke="#1b2440" stroke-opacity="0.16" stroke-width="3"/><line x1="-112" y1="56" x2="-16" y2="50" stroke="#1b2440" stroke-opacity="0.16" stroke-width="3"/><line x1="16" y1="50" x2="112" y2="56" stroke="#1b2440" stroke-opacity="0.16" stroke-width="3"/><line x1="-112" y1="68" x2="-16" y2="62" stroke="#1b2440" stroke-opacity="0.16" stroke-width="3"/><line x1="16" y1="62" x2="112" y2="68" stroke="#1b2440" stroke-opacity="0.16" stroke-width="3"/>
    </g></g>
</svg>
