<svg xmlns="http://www.w3.org/2000/svg" viewBox="0 0 1600 900" width="1600" height="900" fill="none" >
  <defs>
    <linearGradient id="hg" x1="0" y1="0" x2="1" y2="1"><stop offset="0" stop-color="#1b2440"/><stop offset="1" stop-color="#2a3763"/></linearGradient>
    <linearGradient id="hbook" x1="0" y1="0" x2="1" y2="1"><stop offset="0" stop-color="#c8a45c"/><stop offset="1" stop-color="#c96a4b"/></linearGradient>
    <radialGradient id="hglow" cx="0.72" cy="0.35" r="0.5">
      <stop offset="0" stop-color="#e6c983" stop-opacity="0.35"/>
      <stop offset="1" stop-color="#e6c983" stop-opacity="0"/>
    </radialGradient>
  </defs>
  <rect width="1600" height="900" fill="url(#hg)"/>
  <rect width="1600" height="900" fill="url(#hglow)"/>
  <g transform="translate(1552,368) rotate(0)" opacity="0.06"><rect x="-9.0" y="-12.0" width="18" height="24" rx="2" fill="#f6f1e7"/><line x1="-5.0" y1="-12.0" x2="-5.0" y2="12.0" stroke="#1b2440" stroke-opacity="0.15" stroke-width="1.5"/></g><circle cx="1520" cy="674" r="4" fill="#f6f1e7" opacity="0.06"/><circle cx="885" cy="721" r="6" fill="#f6f1e7" opacity="0.06"/><g transform="translate(637,541) rotate(120)" opacity="0.06"><rect x="-9.0" y="-19.5" width="18" height="39" rx="2" fill="#f6f1e7"/><line x1="-5.0" y1="-19.5" x2="-5.0" y2="19.5" stroke="#1b2440" stroke-opacity="0.15" stroke-width="1.5"/></g><circle cx="666" cy="30" r="5" fill="#f6f1e7" opacity="0.06"/><circle cx="1162" cy="876" r="2" fill="#f6f1e7" opacity="0.06"/><g transform="translate(1215,743) rotate(240)" opacity="0.06"><rect x="-9.0" y="-17.0" width="18" height="34" rx="2" fill="#f6f1e7"/><line x1="-5.0" y1="-17.0" x2="-5.0" y2="17.0" stroke="#1b2440" stroke-opacity="0.15" stroke-width="1.5"/></g><circle cx="215" cy="23" r="6" fill="#f6f1e7" opacity="0.06"/><circle cx="1252" cy="592" r="3" fill="#f6f1e7" opacity="0.06"/><g transform="translate(1316,178) rotate(0)" opacity="0.06"><rect x="-9.0" y="-14.5" width="18" height="29" rx="2" fill="#f6f1e7"/><line x1="-5.0" y1="-14.5" x2="-5.0" y2="14.5" stroke="#1b2440" stroke-opacity="0.15" stroke-width="1.5"/></g><circle cx="1097" cy="765" r="2" fill="#f6f1e7" opacity="0.06"/><circle cx="1585" cy="405" r="4" fill="#f6f1e7" opacity="0.06"/><g transform="translate(1070,254) rotate(120)" opacity="0.06"><rect x="-9.0" y="-12.0" width="18" height="24" rx="2" fill="#f6f1e7"/><line x1="-5.0" y1="-12.0" x2="-5.0" y2="12.0" stroke="#1b2440" stroke-opacity="0.15" stroke-width="1.5"/></g><circle cx="1342" cy="380" r="3" fill="#f6f1e7" opacity="0.06"/><circle cx="1491" cy="787" r="5" fill="#f6f1e7" opacity="0.06"/><g transform="translate(907,787) rotate(240)" opacity="0.06"><rect x="-9.0" y="-19.5" width="18" height="39" rx="2" fill="#f6f1e7"/><line x1="-5.0" y1="-19.5" x2="-5.0" y2="19.5" stroke="#1b2440" stroke-opacity="0.15" stroke-width="1.5"/></g><circle cx="1080" cy="816" r="4" fill="#f6f1e7" opacity="0.06"/><circle cx="600" cy="582" r="6" fill="#f6f1e7" opacity="0.06"/><g transform="translate(157,809) rotate(0)" opacity="0.06"><rect x="-9.0" y="-17.0" width="18" height="34" rx="2" fill="#f6f1e7"/><line x1="-5.0" y1="-17.0" x2="-5.0" y2="17.0" stroke="#1b2440" stroke-opacity="0.15" stroke-width="1.5"/></g><circle cx="741" cy="269" r="5" fill="#f6f1e7" opacity="0.06"/><circle cx="642" cy="478" r="2" fill="#f6f1e7" opacity="0.06"/><g transform="translate(50,784) rotate(120)" opacity="0.06"><rect x="-9.0" y="-14.5" width="18" height="29" rx="2" fill="#f6f1e7"/><line x1="-5.0" y1="-14.5" x2="-5.0" y2="14.5" stroke="#1b2440" stroke-opacity="0.15" stroke-width="1.5"/></g><circle cx="1255" cy="831" r="6" fill="#f6f1e7" opacity="0.06"/><circle cx="447" cy="651" r="3" fill="#f6f1e7" opacity="0.06"/><g transform="translate(716,140) rotate(240)" opacity="0.06"><rect x="-9.0" y="-12.0" width="18" height="24" rx="2" fill="#f6f1e7"/><line x1="-5.0" y1="-12.0" x2="-5.0" y2="12.0" stroke="#1b2440" stroke-opacity="0.15" stroke-width="1.5"/></g><circle cx="652" cy="86" r="2" fill="#f6f1e7" opacity="0.06"/><circle cx="945" cy="853" r="4" fill="#f6f1e7" opacity="0.06"/><g transform="translate(985,133) rotate(0)" opacity="0.06"><rect x="-9.0" y="-19.5" width="18" height="39" rx="2" fill="#f6f1e7"/><line x1="-5.0" y1="-19.5" x2="-5.0" y2="19.5" stroke="#1b2440" stroke-opacity="0.15" stroke-width="1.5"/></g>
  <!-- decorative arcs -->
  <circle cx="1180" cy="450" r="360" stroke="#c8a45c" stroke-opacity="0.18" stroke-width="2"/>
  <circle cx="1180" cy="450" r="270" stroke="#c8a45c" stroke-opacity="0.25" stroke-width="2"/>
  <!-- floating open book -->
  <g transform="translate(1180,300)"><g transform="translate(0,0) scale(1.5)">
      <path d="M0 -6 C -50 -30 -105 -26 -140 -12 L -140 78 C -105 64 -50 68 0 92 C 50 68 105 64 140 78 L 140 -12 C 105 -26 50 -30 0 -6 Z" fill="url(#hbook)"/>
      <path d="M0 -2 C -46 -24 -96 -21 -128 -9 L -128 70 C -96 58 -46 61 0 82 C 46 61 96 58 128 70 L 128 -9 C 96 -21 46 -24 0 -2 Z" fill="#f6f1e7"/>
      <path d="M0 -2 L 0 82" stroke="#1b2440" stroke-opacity="0.25" stroke-width="2"/>
      <line x1="-112" y1="8" x2="-16" y2="2" stroke="#1b2440" stroke-opacity="0.16" stroke-width="3"/><line x1="16" y1="2" x2="112" y2="8" stroke="#1b2440" stroke-opacity="0.16" stroke-width="3"/><line x1="-112" y1="20" x2="-16" y2="14" stroke="#1b2440" stroke-opacity="0.16" stroke-width="3"/><line x1="16" y1="14" x2="112" y2="20" stroke="#1b2440" stroke-opacity="0.16" stroke-width="3"/><line x1="-112" y1="32" x2="-16" y2="26" stroke="#1b2440" stroke-opacity="0.16" stroke-width="3"/><line x1="16" y1="26" x2="112" y2="32" stroke="#1b2440" stroke-opacity="0.16" stroke-width="3"/><line x1="-112" y1="44" x2="-16" y2="38" stroke="#1b2440" stroke-opacity="0.16" stroke-width="3"/><line x1="16" y1="38" x2="112" y2="44" stroke="#1b2440" stroke-opacity="0.16" stroke-width="3"/><line x1="-112" y1="56" x2="-16" y2="50" stroke="#1b2440" stroke-opacity="0.16" stroke-width="3"/><line x1="16" y1="50" x2="112" y2="56" stroke="#1b2440" stroke-opacity="0.16" stroke-width="3"/><line x1="-112" y1="68" x2="-16" y2="62" stroke="#1b2440" stroke-opacity="0.16" stroke-width="3"/><line x1="16" y1="62" x2="112" y2="68" stroke="#1b2440" stroke-opacity="0.16" stroke-width="3"/>
    </g></g>
  <!-- book stack -->
  <g transform="translate(1070,560)">
    <g transform="translate(0,0)"><rect x="0" y="0" width="260" height="44" rx="3" fill="#c96a4b"/><rect x="36.400000000000006" y="8.8" width="187.2" height="4" rx="2" fill="#f6f1e7" opacity="0.85"/><rect x="36.400000000000006" y="14.96" width="135.20000000000002" height="3" rx="1.5" fill="#f6f1e7" opacity="0.5"/><rect x="36.400000000000006" y="31.68" width="104.0" height="8" rx="1.5" fill="#e6c983" opacity="0.8"/></g>
    <g transform="translate(14,50)"><rect x="0" y="0" width="232" height="44" rx="3" fill="#7c9a80"/><rect x="32.480000000000004" y="8.8" width="167.04" height="4" rx="2" fill="#f6f1e7" opacity="0.85"/><rect x="32.480000000000004" y="14.96" width="120.64" height="3" rx="1.5" fill="#f6f1e7" opacity="0.5"/><rect x="32.480000000000004" y="31.68" width="92.80000000000001" height="8" rx="1.5" fill="#e6c983" opacity="0.8"/></g>
    <g transform="translate(-6,100)"><rect x="0" y="0" width="272" height="44" rx="3" fill="#6d5b9e"/><rect x="38.080000000000005" y="8.8" width="195.84" height="4" rx="2" fill="#f6f1e7" opacity="0.85"/><rect x="38.080000000000005" y="14.96" width="141.44" height="3" rx="1.5" fill="#f6f1e7" opacity="0.5"/><rect x="38.080000000000005" y="31.68" width="108.80000000000001" height="8" rx="1.5" fill="#e6c983" opacity="0.8"/></g>
    <g transform="translate(20,150)"><rect x="0" y="0" width="220" height="44" rx="3" fill="#c8a45c"/><rect x="30.800000000000004" y="8.8" width="158.4" height="4" rx="2" fill="#1b2440" opacity="0.85"/><rect x="30.800000000000004" y="14.96" width="114.4" height="3" rx="1.5" fill="#1b2440" opacity="0.5"/><rect x="30.800000000000004" y="31.68" width="88.0" height="8" rx="1.5" fill="#e6c983" opacity="0.8"/></g>
  </g>
</svg>
