<svg xmlns="http://www.w3.org/2000/svg" viewBox="0 0 1600 420" width="1600" height="420" fill="none" >
  <rect width="1600" height="420" fill="#f6f1e7"/>
  <g transform="translate(648,280) rotate(0)" opacity="0.04"><rect x="-9.0" y="-12.0" width="18" height="24" rx="2" fill="#1b2440"/><line x1="-5.0" y1="-12.0" x2="-5.0" y2="12.0" stroke="#1b2440" stroke-opacity="0.15" stroke-width="1.5"/></g><circle cx="1336" cy="210" r="4" fill="#1b2440" opacity="0.04"/><circle cx="621" cy="309" r="6" fill="#1b2440" opacity="0.04"/><g transform="translate(1093,125) rotate(120)" opacity="0.04"><rect x="-9.0" y="-19.5" width="18" height="39" rx="2" fill="#1b2440"/><line x1="-5.0" y1="-19.5" x2="-5.0" y2="19.5" stroke="#1b2440" stroke-opacity="0.15" stroke-width="1.5"/></g><circle cx="1042" cy="62" r="5" fill="#1b2440" opacity="0.04"/><circle cx="658" cy="112" r="2" fill="#1b2440" opacity="0.04"/><g transform="translate(631,271) rotate(240)" opacity="0.04"><rect x="-9.0" y="-17.0" width="18" height="34" rx="2" fill="#1b2440"/><line x1="-5.0" y1="-17.0" x2="-5.0" y2="17.0" stroke="#1b2440" stroke-opacity="0.15" stroke-width="1.5"/></g><circle cx="351" cy="327" r="6" fill="#1b2440" opacity="0.04"/><circle cx="1308" cy="384" r="3" fill="#1b2440" opacity="0.04"/><g transform="translate(492,74) rotate(0)" opacity="0.04"><rect x="-9.0" y="-14.5" width="18" height="29" rx="2" fill="#1b2440"/><line x1="-5.0" y1="-14.5" x2="-5.0" y2="14.5" stroke="#1b2440" stroke-opacity="0.15" stroke-width="1.5"/></g><circle cx="193" cy="53" r="2" fill="#1b2440" opacity="0.04"/><circle cx="1401" cy="229" r="4" fill="#1b2440" opacity="0.04"/><g transform="translate(806,346) rotate(120)" opacity="0.04"><rect x="-9.0" y="-12.0" width="18" height="24" rx="2" fill="#1b2440"/><line x1="-5.0" y1="-12.0" x2="-5.0" y2="12.0" stroke="#1b2440" stroke-opacity="0.15" stroke-width="1.5"/></g><circle cx="198" cy="276" r="3" fill="#1b2440" opacity="0.04"/><circle cx="267" cy="375" r="5" fill="#1b2440" opacity="0.04"/><g transform="translate(403,191) rotate(240)" opacity="0.04"><rect x="-9.0" y="-19.5" width="18" height="39" rx="2" fill="#1b2440"/><line x1="-5.0" y1="-19.5" x2="-5.0" y2="19.5" stroke="#1b2440" stroke-opacity="0.15" stroke-width="1.5"/></g><circle cx="496" cy="128" r="4" fill="#1b2440" opacity="0.04"/><circle cx="736" cy="178" r="6" fill="#1b2440" opacity="0.04"/><g transform="translate(213,337) rotate(0)" opacity="0.04"><rect x="-9.0" y="-17.0" width="18" height="34" rx="2" fill="#1b2440"/><line x1="-5.0" y1="-17.0" x2="-5.0" y2="17.0" stroke="#1b2440" stroke-opacity="0.15" stroke-width="1.5"/></g><circle cx="1517" cy="393" r="5" fill="#1b2440" opacity="0.04"/><circle cx="1338" cy="30" r="2" fill="#1b2440" opacity="0.04"/><g transform="translate(1466,140) rotate(120)" opacity="0.04"><rect x="-9.0" y="-14.5" width="18" height="29" rx="2" fill="#1b2440"/><line x1="-5.0" y1="-14.5" x2="-5.0" y2="14.5" stroke="#1b2440" stroke-opacity="0.15" stroke-width="1.5"/></g><circle cx="991" cy="119" r="6" fill="#1b2440" opacity="0.04"/><circle cx="903" cy="295" r="3" fill="#1b2440" opacity="0.04"/><g transform="translate(1092,412) rotate(240)" opacity="0.04"><rect x="-9.0" y="-12.0" width="18" height="24" rx="2" fill="#1b2440"/><line x1="-5.0" y1="-12.0" x2="-5.0" y2="12.0" stroke="#1b2440" stroke-opacity="0.15" stroke-width="1.5"/></g><circle cx="148" cy="342" r="2" fill="#1b2440" opacity="0.04"/><circle cx="361" cy="21" r="4" fill="#1b2440" opacity="0.04"/><g transform="translate(1121,257) rotate(0)" opacity="0.04"><rect x="-9.0" y="-19.5" width="18" height="39" rx="2" fill="#1b2440"/><line x1="-5.0" y1="-19.5" x2="-5.0" y2="19.5" stroke="#1b2440" stroke-opacity="0.15" stroke-width="1.5"/></g>
  <path d="M200 210 H1400" stroke="#c8a45c" stroke-opacity="0.3" stroke-width="3" stroke-dasharray="2 14"/>
</svg>
