<svg xmlns="http://www.w3.org/2000/svg" viewBox="0 0 600 420" width="600" height="420" fill="none" >
      <defs><linearGradient id="sdistribution" x1="0" y1="0" x2="1" y2="1"><stop offset="0" stop-color="#7c9a80"/><stop offset="1" stop-color="#1b2440"/></linearGradient></defs>
      <rect width="600" height="420" rx="16" fill="url(#sdistribution)"/>
      <g transform="translate(483,45) rotate(0)" opacity="0.06"><rect x="-9.0" y="-12.0" width="18" height="24" rx="2" fill="#f6f1e7"/><line x1="-5.0" y1="-12.0" x2="-5.0" y2="12.0" stroke="#1b2440" stroke-opacity="0.15" stroke-width="1.5"/></g><circle cx="221" cy="355" r="4" fill="#f6f1e7" opacity="0.06"/><circle cx="256" cy="14" r="6" fill="#f6f1e7" opacity="0.06"/><g transform="translate(378,30) rotate(120)" opacity="0.06"><rect x="-9.0" y="-19.5" width="18" height="39" rx="2" fill="#f6f1e7"/><line x1="-5.0" y1="-19.5" x2="-5.0" y2="19.5" stroke="#1b2440" stroke-opacity="0.15" stroke-width="1.5"/></g><circle cx="77" cy="67" r="5" fill="#f6f1e7" opacity="0.06"/><circle cx="343" cy="377" r="2" fill="#f6f1e7" opacity="0.06"/><g transform="translate(66,36) rotate(240)" opacity="0.06"><rect x="-9.0" y="-17.0" width="18" height="34" rx="2" fill="#f6f1e7"/><line x1="-5.0" y1="-17.0" x2="-5.0" y2="17.0" stroke="#1b2440" stroke-opacity="0.15" stroke-width="1.5"/></g><circle cx="236" cy="52" r="6" fill="#f6f1e7" opacity="0.06"/><circle cx="343" cy="89" r="3" fill="#f6f1e7" opacity="0.06"/><g transform="translate(177,399) rotate(0)" opacity="0.06"><rect x="-9.0" y="-14.5" width="18" height="29" rx="2" fill="#f6f1e7"/><line x1="-5.0" y1="-14.5" x2="-5.0" y2="14.5" stroke="#1b2440" stroke-opacity="0.15" stroke-width="1.5"/></g><circle cx="428" cy="58" r="2" fill="#f6f1e7" opacity="0.06"/><circle cx="286" cy="74" r="4" fill="#f6f1e7" opacity="0.06"/><g transform="translate(441,111) rotate(120)" opacity="0.06"><rect x="-9.0" y="-12.0" width="18" height="24" rx="2" fill="#f6f1e7"/><line x1="-5.0" y1="-12.0" x2="-5.0" y2="12.0" stroke="#1b2440" stroke-opacity="0.15" stroke-width="1.5"/></g><circle cx="83" cy="1" r="3" fill="#f6f1e7" opacity="0.06"/><circle cx="502" cy="80" r="5" fill="#f6f1e7" opacity="0.06"/><g transform="translate(288,96) rotate(240)" opacity="0.06"><rect x="-9.0" y="-19.5" width="18" height="39" rx="2" fill="#f6f1e7"/><line x1="-5.0" y1="-19.5" x2="-5.0" y2="19.5" stroke="#1b2440" stroke-opacity="0.15" stroke-width="1.5"/></g><circle cx="131" cy="133" r="4" fill="#f6f1e7" opacity="0.06"/><circle cx="421" cy="23" r="6" fill="#f6f1e7" opacity="0.06"/><g transform="translate(48,102) rotate(0)" opacity="0.06"><rect x="-9.0" y="-17.0" width="18" height="34" rx="2" fill="#f6f1e7"/><line x1="-5.0" y1="-17.0" x2="-5.0" y2="17.0" stroke="#1b2440" stroke-opacity="0.15" stroke-width="1.5"/></g><circle cx="2" cy="118" r="5" fill="#f6f1e7" opacity="0.06"/><circle cx="373" cy="155" r="2" fill="#f6f1e7" opacity="0.06"/><g transform="translate(351,45) rotate(120)" opacity="0.06"><rect x="-9.0" y="-14.5" width="18" height="29" rx="2" fill="#f6f1e7"/><line x1="-5.0" y1="-14.5" x2="-5.0" y2="14.5" stroke="#1b2440" stroke-opacity="0.15" stroke-width="1.5"/></g><circle cx="26" cy="124" r="6" fill="#f6f1e7" opacity="0.06"/><circle cx="388" cy="140" r="3" fill="#f6f1e7" opacity="0.06"/><g transform="translate(327,177) rotate(240)" opacity="0.06"><rect x="-9.0" y="-12.0" width="18" height="24" rx="2" fill="#f6f1e7"/><line x1="-5.0" y1="-12.0" x2="-5.0" y2="12.0" stroke="#1b2440" stroke-opacity="0.15" stroke-width="1.5"/></g><circle cx="233" cy="67" r="2" fill="#f6f1e7" opacity="0.06"/><circle cx="196" cy="146" r="4" fill="#f6f1e7" opacity="0.06"/><g transform="translate(6,162) rotate(0)" opacity="0.06"><rect x="-9.0" y="-19.5" width="18" height="39" rx="2" fill="#f6f1e7"/><line x1="-5.0" y1="-19.5" x2="-5.0" y2="19.5" stroke="#1b2440" stroke-opacity="0.15" stroke-width="1.5"/></g>
      <circle cx="300" cy="185" r="96" fill="#f6f1e7" opacity="0.12"/>
      <circle cx="300" cy="185" r="70" fill="#f6f1e7" opacity="0.9"/>
      <g transform="translate(300,185)" stroke="#f6f1e7" stroke-width="6" stroke-linecap="round" stroke-linejoin="round" fill="none"><circle cx="0" cy="0" r="30"/><path d="M-30 0 H30 M0 -30 V30 M-20 -20 C-6 -8 6 -8 20 -20 M-20 20 C-6 8 6 8 20 20"/></g>
      <text x="300" y="330" text-anchor="middle" font-family="Georgia, serif" font-size="30" font-weight="700" fill="#f6f1e7">Distribution</text>
    </svg>
