<svg xmlns="http://www.w3.org/2000/svg" viewBox="0 0 600 420" width="600" height="420" fill="none" >
      <defs><linearGradient id="sconsulting" x1="0" y1="0" x2="1" y2="1"><stop offset="0" stop-color="#c77b8b"/><stop offset="1" stop-color="#1b2440"/></linearGradient></defs>
      <rect width="600" height="420" rx="16" fill="url(#sconsulting)"/>
      <g transform="translate(484,392) rotate(0)" opacity="0.06"><rect x="-9.0" y="-12.0" width="18" height="24" rx="2" fill="#f6f1e7"/><line x1="-5.0" y1="-12.0" x2="-5.0" y2="12.0" stroke="#1b2440" stroke-opacity="0.15" stroke-width="1.5"/></g><circle cx="292" cy="266" r="4" fill="#f6f1e7" opacity="0.06"/><circle cx="497" cy="337" r="6" fill="#f6f1e7" opacity="0.06"/><g transform="translate(89,349) rotate(120)" opacity="0.06"><rect x="-9.0" y="-19.5" width="18" height="39" rx="2" fill="#f6f1e7"/><line x1="-5.0" y1="-19.5" x2="-5.0" y2="19.5" stroke="#1b2440" stroke-opacity="0.15" stroke-width="1.5"/></g><circle cx="558" cy="174" r="5" fill="#f6f1e7" opacity="0.06"/><circle cx="294" cy="168" r="2" fill="#f6f1e7" opacity="0.06"/><g transform="translate(187,299) rotate(240)" opacity="0.06"><rect x="-9.0" y="-17.0" width="18" height="34" rx="2" fill="#f6f1e7"/><line x1="-5.0" y1="-17.0" x2="-5.0" y2="17.0" stroke="#1b2440" stroke-opacity="0.15" stroke-width="1.5"/></g><circle cx="427" cy="131" r="6" fill="#f6f1e7" opacity="0.06"/><circle cx="104" cy="76" r="3" fill="#f6f1e7" opacity="0.06"/><g transform="translate(8,130) rotate(0)" opacity="0.06"><rect x="-9.0" y="-14.5" width="18" height="29" rx="2" fill="#f6f1e7"/><line x1="-5.0" y1="-14.5" x2="-5.0" y2="14.5" stroke="#1b2440" stroke-opacity="0.15" stroke-width="1.5"/></g><circle cx="429" cy="81" r="2" fill="#f6f1e7" opacity="0.06"/><circle cx="357" cy="33" r="4" fill="#f6f1e7" opacity="0.06"/><g transform="translate(82,38) rotate(120)" opacity="0.06"><rect x="-9.0" y="-12.0" width="18" height="24" rx="2" fill="#f6f1e7"/><line x1="-5.0" y1="-12.0" x2="-5.0" y2="12.0" stroke="#1b2440" stroke-opacity="0.15" stroke-width="1.5"/></g><circle cx="394" cy="332" r="3" fill="#f6f1e7" opacity="0.06"/><circle cx="383" cy="403" r="5" fill="#f6f1e7" opacity="0.06"/><g transform="translate(239,415) rotate(240)" opacity="0.06"><rect x="-9.0" y="-19.5" width="18" height="39" rx="2" fill="#f6f1e7"/><line x1="-5.0" y1="-19.5" x2="-5.0" y2="19.5" stroke="#1b2440" stroke-opacity="0.15" stroke-width="1.5"/></g><circle cx="252" cy="240" r="4" fill="#f6f1e7" opacity="0.06"/><circle cx="12" cy="234" r="6" fill="#f6f1e7" opacity="0.06"/><g transform="translate(409,365) rotate(0)" opacity="0.06"><rect x="-9.0" y="-17.0" width="18" height="34" rx="2" fill="#f6f1e7"/><line x1="-5.0" y1="-17.0" x2="-5.0" y2="17.0" stroke="#1b2440" stroke-opacity="0.15" stroke-width="1.5"/></g><circle cx="433" cy="197" r="5" fill="#f6f1e7" opacity="0.06"/><circle cx="374" cy="142" r="2" fill="#f6f1e7" opacity="0.06"/><g transform="translate(422,196) rotate(120)" opacity="0.06"><rect x="-9.0" y="-14.5" width="18" height="29" rx="2" fill="#f6f1e7"/><line x1="-5.0" y1="-14.5" x2="-5.0" y2="14.5" stroke="#1b2440" stroke-opacity="0.15" stroke-width="1.5"/></g><circle cx="267" cy="147" r="6" fill="#f6f1e7" opacity="0.06"/><circle cx="99" cy="99" r="3" fill="#f6f1e7" opacity="0.06"/><g transform="translate(208,104) rotate(240)" opacity="0.06"><rect x="-9.0" y="-12.0" width="18" height="24" rx="2" fill="#f6f1e7"/><line x1="-5.0" y1="-12.0" x2="-5.0" y2="12.0" stroke="#1b2440" stroke-opacity="0.15" stroke-width="1.5"/></g><circle cx="184" cy="398" r="2" fill="#f6f1e7" opacity="0.06"/><circle cx="317" cy="49" r="4" fill="#f6f1e7" opacity="0.06"/><g transform="translate(197,61) rotate(0)" opacity="0.06"><rect x="-9.0" y="-19.5" width="18" height="39" rx="2" fill="#f6f1e7"/><line x1="-5.0" y1="-19.5" x2="-5.0" y2="19.5" stroke="#1b2440" stroke-opacity="0.15" stroke-width="1.5"/></g>
      <circle cx="300" cy="185" r="96" fill="#f6f1e7" opacity="0.12"/>
      <circle cx="300" cy="185" r="70" fill="#f6f1e7" opacity="0.9"/>
      <g transform="translate(300,185)" stroke="#f6f1e7" stroke-width="6" stroke-linecap="round" stroke-linejoin="round" fill="none"><circle cx="0" cy="-8" r="18"/><path d="M-26 30 C-26 8 26 8 26 30"/><path d="M18 -22 l6 -6 M-18 -22 l-6 -6"/></g>
      <text x="300" y="330" text-anchor="middle" font-family="Georgia, serif" font-size="30" font-weight="700" fill="#f6f1e7">Consulting</text>
    </svg>
