<svg xmlns="http://www.w3.org/2000/svg" viewBox="0 0 600 420" width="600" height="420" fill="none" >
      <defs><linearGradient id="sdesign" x1="0" y1="0" x2="1" y2="1"><stop offset="0" stop-color="#6d5b9e"/><stop offset="1" stop-color="#1b2440"/></linearGradient></defs>
      <rect width="600" height="420" rx="16" fill="url(#sdesign)"/>
      <g transform="translate(326,226) rotate(0)" opacity="0.06"><rect x="-9.0" y="-12.0" width="18" height="24" rx="2" fill="#f6f1e7"/><line x1="-5.0" y1="-12.0" x2="-5.0" y2="12.0" stroke="#1b2440" stroke-opacity="0.15" stroke-width="1.5"/></g><circle cx="474" cy="288" r="4" fill="#f6f1e7" opacity="0.06"/><circle cx="219" cy="243" r="6" fill="#f6f1e7" opacity="0.06"/><g transform="translate(151,407) rotate(120)" opacity="0.06"><rect x="-9.0" y="-19.5" width="18" height="39" rx="2" fill="#f6f1e7"/><line x1="-5.0" y1="-19.5" x2="-5.0" y2="19.5" stroke="#1b2440" stroke-opacity="0.15" stroke-width="1.5"/></g><circle cx="160" cy="308" r="5" fill="#f6f1e7" opacity="0.06"/><circle cx="236" cy="130" r="2" fill="#f6f1e7" opacity="0.06"/><g transform="translate(269,385) rotate(240)" opacity="0.06"><rect x="-9.0" y="-17.0" width="18" height="34" rx="2" fill="#f6f1e7"/><line x1="-5.0" y1="-17.0" x2="-5.0" y2="17.0" stroke="#1b2440" stroke-opacity="0.15" stroke-width="1.5"/></g><circle cx="249" cy="69" r="6" fill="#f6f1e7" opacity="0.06"/><circle cx="66" cy="150" r="3" fill="#f6f1e7" opacity="0.06"/><g transform="translate(310,272) rotate(0)" opacity="0.06"><rect x="-9.0" y="-14.5" width="18" height="29" rx="2" fill="#f6f1e7"/><line x1="-5.0" y1="-14.5" x2="-5.0" y2="14.5" stroke="#1b2440" stroke-opacity="0.15" stroke-width="1.5"/></g><circle cx="271" cy="47" r="2" fill="#f6f1e7" opacity="0.06"/><circle cx="539" cy="331" r="4" fill="#f6f1e7" opacity="0.06"/><g transform="translate(404,292) rotate(120)" opacity="0.06"><rect x="-9.0" y="-12.0" width="18" height="24" rx="2" fill="#f6f1e7"/><line x1="-5.0" y1="-12.0" x2="-5.0" y2="12.0" stroke="#1b2440" stroke-opacity="0.15" stroke-width="1.5"/></g><circle cx="456" cy="354" r="3" fill="#f6f1e7" opacity="0.06"/><circle cx="585" cy="309" r="5" fill="#f6f1e7" opacity="0.06"/><g transform="translate(181,53) rotate(240)" opacity="0.06"><rect x="-9.0" y="-19.5" width="18" height="39" rx="2" fill="#f6f1e7"/><line x1="-5.0" y1="-19.5" x2="-5.0" y2="19.5" stroke="#1b2440" stroke-opacity="0.15" stroke-width="1.5"/></g><circle cx="334" cy="374" r="4" fill="#f6f1e7" opacity="0.06"/><circle cx="434" cy="196" r="6" fill="#f6f1e7" opacity="0.06"/><g transform="translate(371,31) rotate(0)" opacity="0.06"><rect x="-9.0" y="-17.0" width="18" height="34" rx="2" fill="#f6f1e7"/><line x1="-5.0" y1="-17.0" x2="-5.0" y2="17.0" stroke="#1b2440" stroke-opacity="0.15" stroke-width="1.5"/></g><circle cx="135" cy="135" r="5" fill="#f6f1e7" opacity="0.06"/><circle cx="216" cy="216" r="2" fill="#f6f1e7" opacity="0.06"/><g transform="translate(4,338) rotate(120)" opacity="0.06"><rect x="-9.0" y="-14.5" width="18" height="29" rx="2" fill="#f6f1e7"/><line x1="-5.0" y1="-14.5" x2="-5.0" y2="14.5" stroke="#1b2440" stroke-opacity="0.15" stroke-width="1.5"/></g><circle cx="589" cy="113" r="6" fill="#f6f1e7" opacity="0.06"/><circle cx="161" cy="397" r="3" fill="#f6f1e7" opacity="0.06"/><g transform="translate(410,358) rotate(240)" opacity="0.06"><rect x="-9.0" y="-12.0" width="18" height="24" rx="2" fill="#f6f1e7"/><line x1="-5.0" y1="-12.0" x2="-5.0" y2="12.0" stroke="#1b2440" stroke-opacity="0.15" stroke-width="1.5"/></g><circle cx="126" cy="0" r="2" fill="#f6f1e7" opacity="0.06"/><circle cx="399" cy="375" r="4" fill="#f6f1e7" opacity="0.06"/><g transform="translate(19,119) rotate(0)" opacity="0.06"><rect x="-9.0" y="-19.5" width="18" height="39" rx="2" fill="#f6f1e7"/><line x1="-5.0" y1="-19.5" x2="-5.0" y2="19.5" stroke="#1b2440" stroke-opacity="0.15" stroke-width="1.5"/></g>
      <circle cx="300" cy="185" r="96" fill="#f6f1e7" opacity="0.12"/>
      <circle cx="300" cy="185" r="70" fill="#f6f1e7" opacity="0.9"/>
      <g transform="translate(300,185)" stroke="#e6c983" stroke-width="6" stroke-linecap="round" stroke-linejoin="round" fill="none"><rect x="-30" y="-26" width="60" height="52" rx="6"/><circle cx="-12" cy="-8" r="7"/><path d="M-30 20 L-6 -4 L8 8 L18 -2 L30 10"/></g>
      <text x="300" y="330" text-anchor="middle" font-family="Georgia, serif" font-size="30" font-weight="700" fill="#f6f1e7">Cover Design</text>
    </svg>
