<svg xmlns="http://www.w3.org/2000/svg" viewBox="0 0 600 420" width="600" height="420" fill="none" >
      <defs><linearGradient id="smarketing" x1="0" y1="0" x2="1" y2="1"><stop offset="0" stop-color="#c96a4b"/><stop offset="1" stop-color="#1b2440"/></linearGradient></defs>
      <rect width="600" height="420" rx="16" fill="url(#smarketing)"/>
      <g transform="translate(248,280) rotate(0)" opacity="0.06"><rect x="-9.0" y="-12.0" width="18" height="24" rx="2" fill="#f6f1e7"/><line x1="-5.0" y1="-12.0" x2="-5.0" y2="12.0" stroke="#1b2440" stroke-opacity="0.15" stroke-width="1.5"/></g><circle cx="336" cy="210" r="4" fill="#f6f1e7" opacity="0.06"/><circle cx="21" cy="309" r="6" fill="#f6f1e7" opacity="0.06"/><g transform="translate(493,125) rotate(120)" opacity="0.06"><rect x="-9.0" y="-19.5" width="18" height="39" rx="2" fill="#f6f1e7"/><line x1="-5.0" y1="-19.5" x2="-5.0" y2="19.5" stroke="#1b2440" stroke-opacity="0.15" stroke-width="1.5"/></g><circle cx="442" cy="62" r="5" fill="#f6f1e7" opacity="0.06"/><circle cx="458" cy="112" r="2" fill="#f6f1e7" opacity="0.06"/><g transform="translate(431,271) rotate(240)" opacity="0.06"><rect x="-9.0" y="-17.0" width="18" height="34" rx="2" fill="#f6f1e7"/><line x1="-5.0" y1="-17.0" x2="-5.0" y2="17.0" stroke="#1b2440" stroke-opacity="0.15" stroke-width="1.5"/></g><circle cx="351" cy="327" r="6" fill="#f6f1e7" opacity="0.06"/><circle cx="108" cy="384" r="3" fill="#f6f1e7" opacity="0.06"/><g transform="translate(292,74) rotate(0)" opacity="0.06"><rect x="-9.0" y="-14.5" width="18" height="29" rx="2" fill="#f6f1e7"/><line x1="-5.0" y1="-14.5" x2="-5.0" y2="14.5" stroke="#1b2440" stroke-opacity="0.15" stroke-width="1.5"/></g><circle cx="193" cy="53" r="2" fill="#f6f1e7" opacity="0.06"/><circle cx="401" cy="229" r="4" fill="#f6f1e7" opacity="0.06"/><g transform="translate(206,346) rotate(120)" opacity="0.06"><rect x="-9.0" y="-12.0" width="18" height="24" rx="2" fill="#f6f1e7"/><line x1="-5.0" y1="-12.0" x2="-5.0" y2="12.0" stroke="#1b2440" stroke-opacity="0.15" stroke-width="1.5"/></g><circle cx="198" cy="276" r="3" fill="#f6f1e7" opacity="0.06"/><circle cx="267" cy="375" r="5" fill="#f6f1e7" opacity="0.06"/><g transform="translate(403,191) rotate(240)" opacity="0.06"><rect x="-9.0" y="-19.5" width="18" height="39" rx="2" fill="#f6f1e7"/><line x1="-5.0" y1="-19.5" x2="-5.0" y2="19.5" stroke="#1b2440" stroke-opacity="0.15" stroke-width="1.5"/></g><circle cx="496" cy="128" r="4" fill="#f6f1e7" opacity="0.06"/><circle cx="536" cy="178" r="6" fill="#f6f1e7" opacity="0.06"/><g transform="translate(413,337) rotate(0)" opacity="0.06"><rect x="-9.0" y="-17.0" width="18" height="34" rx="2" fill="#f6f1e7"/><line x1="-5.0" y1="-17.0" x2="-5.0" y2="17.0" stroke="#1b2440" stroke-opacity="0.15" stroke-width="1.5"/></g><circle cx="117" cy="393" r="5" fill="#f6f1e7" opacity="0.06"/><circle cx="138" cy="30" r="2" fill="#f6f1e7" opacity="0.06"/><g transform="translate(466,140) rotate(120)" opacity="0.06"><rect x="-9.0" y="-14.5" width="18" height="29" rx="2" fill="#f6f1e7"/><line x1="-5.0" y1="-14.5" x2="-5.0" y2="14.5" stroke="#1b2440" stroke-opacity="0.15" stroke-width="1.5"/></g><circle cx="391" cy="119" r="6" fill="#f6f1e7" opacity="0.06"/><circle cx="503" cy="295" r="3" fill="#f6f1e7" opacity="0.06"/><g transform="translate(92,412) rotate(240)" opacity="0.06"><rect x="-9.0" y="-12.0" width="18" height="24" rx="2" fill="#f6f1e7"/><line x1="-5.0" y1="-12.0" x2="-5.0" y2="12.0" stroke="#1b2440" stroke-opacity="0.15" stroke-width="1.5"/></g><circle cx="348" cy="342" r="2" fill="#f6f1e7" opacity="0.06"/><circle cx="561" cy="21" r="4" fill="#f6f1e7" opacity="0.06"/><g transform="translate(121,257) rotate(0)" opacity="0.06"><rect x="-9.0" y="-19.5" width="18" height="39" rx="2" fill="#f6f1e7"/><line x1="-5.0" y1="-19.5" x2="-5.0" y2="19.5" stroke="#1b2440" stroke-opacity="0.15" stroke-width="1.5"/></g>
      <circle cx="300" cy="185" r="96" fill="#f6f1e7" opacity="0.12"/>
      <circle cx="300" cy="185" r="70" fill="#f6f1e7" opacity="0.9"/>
      <g transform="translate(300,185)" stroke="#f6f1e7" stroke-width="6" stroke-linecap="round" stroke-linejoin="round" fill="none"><path d="M-30 -6 L14 -26 L14 26 L-30 6 Z"/><path d="M-30 -6 L-30 6"/><path d="M14 -14 a12 12 0 0 1 0 28" /><path d="M-18 8 L-14 28 L-2 28 L-6 12"/></g>
      <text x="300" y="330" text-anchor="middle" font-family="Georgia, serif" font-size="30" font-weight="700" fill="#f6f1e7">Marketing</text>
    </svg>
