<svg xmlns="http://www.w3.org/2000/svg" viewBox="0 0 600 420" width="600" height="420" fill="none" >
      <defs><linearGradient id="sformatting" x1="0" y1="0" x2="1" y2="1"><stop offset="0" stop-color="#3f8a8f"/><stop offset="1" stop-color="#1b2440"/></linearGradient></defs>
      <rect width="600" height="420" rx="16" fill="url(#sformatting)"/>
      <g transform="translate(588,180) rotate(0)" opacity="0.06"><rect x="-9.0" y="-12.0" width="18" height="24" rx="2" fill="#f6f1e7"/><line x1="-5.0" y1="-12.0" x2="-5.0" y2="12.0" stroke="#1b2440" stroke-opacity="0.15" stroke-width="1.5"/></g><circle cx="476" cy="370" r="4" fill="#f6f1e7" opacity="0.06"/><circle cx="361" cy="389" r="6" fill="#f6f1e7" opacity="0.06"/><g transform="translate(33,165) rotate(120)" opacity="0.06"><rect x="-9.0" y="-19.5" width="18" height="39" rx="2" fill="#f6f1e7"/><line x1="-5.0" y1="-19.5" x2="-5.0" y2="19.5" stroke="#1b2440" stroke-opacity="0.15" stroke-width="1.5"/></g><circle cx="182" cy="82" r="5" fill="#f6f1e7" opacity="0.06"/><circle cx="598" cy="332" r="2" fill="#f6f1e7" opacity="0.06"/><g transform="translate(171,171) rotate(240)" opacity="0.06"><rect x="-9.0" y="-17.0" width="18" height="34" rx="2" fill="#f6f1e7"/><line x1="-5.0" y1="-17.0" x2="-5.0" y2="17.0" stroke="#1b2440" stroke-opacity="0.15" stroke-width="1.5"/></g><circle cx="491" cy="67" r="6" fill="#f6f1e7" opacity="0.06"/><circle cx="448" cy="44" r="3" fill="#f6f1e7" opacity="0.06"/><g transform="translate(432,114) rotate(0)" opacity="0.06"><rect x="-9.0" y="-14.5" width="18" height="29" rx="2" fill="#f6f1e7"/><line x1="-5.0" y1="-14.5" x2="-5.0" y2="14.5" stroke="#1b2440" stroke-opacity="0.15" stroke-width="1.5"/></g><circle cx="533" cy="73" r="2" fill="#f6f1e7" opacity="0.06"/><circle cx="541" cy="29" r="4" fill="#f6f1e7" opacity="0.06"/><g transform="translate(546,246) rotate(120)" opacity="0.06"><rect x="-9.0" y="-12.0" width="18" height="24" rx="2" fill="#f6f1e7"/><line x1="-5.0" y1="-12.0" x2="-5.0" y2="12.0" stroke="#1b2440" stroke-opacity="0.15" stroke-width="1.5"/></g><circle cx="338" cy="16" r="3" fill="#f6f1e7" opacity="0.06"/><circle cx="7" cy="35" r="5" fill="#f6f1e7" opacity="0.06"/><g transform="translate(543,231) rotate(240)" opacity="0.06"><rect x="-9.0" y="-19.5" width="18" height="39" rx="2" fill="#f6f1e7"/><line x1="-5.0" y1="-19.5" x2="-5.0" y2="19.5" stroke="#1b2440" stroke-opacity="0.15" stroke-width="1.5"/></g><circle cx="236" cy="148" r="4" fill="#f6f1e7" opacity="0.06"/><circle cx="76" cy="398" r="6" fill="#f6f1e7" opacity="0.06"/><g transform="translate(153,237) rotate(0)" opacity="0.06"><rect x="-9.0" y="-17.0" width="18" height="34" rx="2" fill="#f6f1e7"/><line x1="-5.0" y1="-17.0" x2="-5.0" y2="17.0" stroke="#1b2440" stroke-opacity="0.15" stroke-width="1.5"/></g><circle cx="257" cy="133" r="5" fill="#f6f1e7" opacity="0.06"/><circle cx="478" cy="110" r="2" fill="#f6f1e7" opacity="0.06"/><g transform="translate(6,180) rotate(120)" opacity="0.06"><rect x="-9.0" y="-14.5" width="18" height="29" rx="2" fill="#f6f1e7"/><line x1="-5.0" y1="-14.5" x2="-5.0" y2="14.5" stroke="#1b2440" stroke-opacity="0.15" stroke-width="1.5"/></g><circle cx="131" cy="139" r="6" fill="#f6f1e7" opacity="0.06"/><circle cx="43" cy="95" r="3" fill="#f6f1e7" opacity="0.06"/><g transform="translate(432,312) rotate(240)" opacity="0.06"><rect x="-9.0" y="-12.0" width="18" height="24" rx="2" fill="#f6f1e7"/><line x1="-5.0" y1="-12.0" x2="-5.0" y2="12.0" stroke="#1b2440" stroke-opacity="0.15" stroke-width="1.5"/></g><circle cx="488" cy="82" r="2" fill="#f6f1e7" opacity="0.06"/><circle cx="301" cy="101" r="4" fill="#f6f1e7" opacity="0.06"/><g transform="translate(261,297) rotate(0)" opacity="0.06"><rect x="-9.0" y="-19.5" width="18" height="39" rx="2" fill="#f6f1e7"/><line x1="-5.0" y1="-19.5" x2="-5.0" y2="19.5" stroke="#1b2440" stroke-opacity="0.15" stroke-width="1.5"/></g>
      <circle cx="300" cy="185" r="96" fill="#f6f1e7" opacity="0.12"/>
      <circle cx="300" cy="185" r="70" fill="#f6f1e7" opacity="0.9"/>
      <g transform="translate(300,185)" stroke="#f6f1e7" stroke-width="6" stroke-linecap="round" stroke-linejoin="round" fill="none"><rect x="-24" y="-30" width="48" height="60" rx="5"/><path d="M-12 -14 H12 M-12 -2 H12 M-12 10 H4"/></g>
      <text x="300" y="330" text-anchor="middle" font-family="Georgia, serif" font-size="30" font-weight="700" fill="#f6f1e7">Formatting</text>
    </svg>
