<svg xmlns="http://www.w3.org/2000/svg" viewBox="0 0 600 420" width="600" height="420" fill="none" >
      <defs><linearGradient id="sediting" x1="0" y1="0" x2="1" y2="1"><stop offset="0" stop-color="#2a3763"/><stop offset="1" stop-color="#1b2440"/></linearGradient></defs>
      <rect width="600" height="420" rx="16" fill="url(#sediting)"/>
      <g transform="translate(353,415) rotate(0)" opacity="0.06"><rect x="-9.0" y="-12.0" width="18" height="24" rx="2" fill="#f6f1e7"/><line x1="-5.0" y1="-12.0" x2="-5.0" y2="12.0" stroke="#1b2440" stroke-opacity="0.15" stroke-width="1.5"/></g><circle cx="591" cy="225" r="4" fill="#f6f1e7" opacity="0.06"/><circle cx="126" cy="264" r="6" fill="#f6f1e7" opacity="0.06"/><g transform="translate(148,260) rotate(120)" opacity="0.06"><rect x="-9.0" y="-19.5" width="18" height="39" rx="2" fill="#f6f1e7"/><line x1="-5.0" y1="-19.5" x2="-5.0" y2="19.5" stroke="#1b2440" stroke-opacity="0.15" stroke-width="1.5"/></g><circle cx="547" cy="77" r="5" fill="#f6f1e7" opacity="0.06"/><circle cx="113" cy="67" r="2" fill="#f6f1e7" opacity="0.06"/><g transform="translate(536,406) rotate(240)" opacity="0.06"><rect x="-9.0" y="-17.0" width="18" height="34" rx="2" fill="#f6f1e7"/><line x1="-5.0" y1="-17.0" x2="-5.0" y2="17.0" stroke="#1b2440" stroke-opacity="0.15" stroke-width="1.5"/></g><circle cx="6" cy="342" r="6" fill="#f6f1e7" opacity="0.06"/><circle cx="213" cy="339" r="3" fill="#f6f1e7" opacity="0.06"/><g transform="translate(547,209) rotate(0)" opacity="0.06"><rect x="-9.0" y="-14.5" width="18" height="29" rx="2" fill="#f6f1e7"/><line x1="-5.0" y1="-14.5" x2="-5.0" y2="14.5" stroke="#1b2440" stroke-opacity="0.15" stroke-width="1.5"/></g><circle cx="298" cy="68" r="2" fill="#f6f1e7" opacity="0.06"/><circle cx="56" cy="184" r="4" fill="#f6f1e7" opacity="0.06"/><g transform="translate(311,61) rotate(120)" opacity="0.06"><rect x="-9.0" y="-12.0" width="18" height="24" rx="2" fill="#f6f1e7"/><line x1="-5.0" y1="-12.0" x2="-5.0" y2="12.0" stroke="#1b2440" stroke-opacity="0.15" stroke-width="1.5"/></g><circle cx="453" cy="291" r="3" fill="#f6f1e7" opacity="0.06"/><circle cx="372" cy="330" r="5" fill="#f6f1e7" opacity="0.06"/><g transform="translate(58,326) rotate(240)" opacity="0.06"><rect x="-9.0" y="-19.5" width="18" height="39" rx="2" fill="#f6f1e7"/><line x1="-5.0" y1="-19.5" x2="-5.0" y2="19.5" stroke="#1b2440" stroke-opacity="0.15" stroke-width="1.5"/></g><circle cx="1" cy="143" r="4" fill="#f6f1e7" opacity="0.06"/><circle cx="191" cy="133" r="6" fill="#f6f1e7" opacity="0.06"/><g transform="translate(518,52) rotate(0)" opacity="0.06"><rect x="-9.0" y="-17.0" width="18" height="34" rx="2" fill="#f6f1e7"/><line x1="-5.0" y1="-17.0" x2="-5.0" y2="17.0" stroke="#1b2440" stroke-opacity="0.15" stroke-width="1.5"/></g><circle cx="372" cy="408" r="5" fill="#f6f1e7" opacity="0.06"/><circle cx="243" cy="405" r="2" fill="#f6f1e7" opacity="0.06"/><g transform="translate(121,275) rotate(120)" opacity="0.06"><rect x="-9.0" y="-14.5" width="18" height="29" rx="2" fill="#f6f1e7"/><line x1="-5.0" y1="-14.5" x2="-5.0" y2="14.5" stroke="#1b2440" stroke-opacity="0.15" stroke-width="1.5"/></g><circle cx="496" cy="134" r="6" fill="#f6f1e7" opacity="0.06"/><circle cx="158" cy="250" r="3" fill="#f6f1e7" opacity="0.06"/><g transform="translate(197,127) rotate(240)" opacity="0.06"><rect x="-9.0" y="-12.0" width="18" height="24" rx="2" fill="#f6f1e7"/><line x1="-5.0" y1="-12.0" x2="-5.0" y2="12.0" stroke="#1b2440" stroke-opacity="0.15" stroke-width="1.5"/></g><circle cx="3" cy="357" r="2" fill="#f6f1e7" opacity="0.06"/><circle cx="66" cy="396" r="4" fill="#f6f1e7" opacity="0.06"/><g transform="translate(376,392) rotate(0)" opacity="0.06"><rect x="-9.0" y="-19.5" width="18" height="39" rx="2" fill="#f6f1e7"/><line x1="-5.0" y1="-19.5" x2="-5.0" y2="19.5" stroke="#1b2440" stroke-opacity="0.15" stroke-width="1.5"/></g>
      <circle cx="300" cy="185" r="96" fill="#f6f1e7" opacity="0.12"/>
      <circle cx="300" cy="185" r="70" fill="#f6f1e7" opacity="0.9"/>
      <g transform="translate(300,185)" stroke="#c8a45c" stroke-width="6" stroke-linecap="round" stroke-linejoin="round" fill="none"><path d="M-28 22 L-28 6 L2 -24 L18 -8 L-12 22 Z"/><path d="M-2 -20 L14 -4"/><path d="M-28 30 H24" stroke-opacity="0.5"/></g>
      <text x="300" y="330" text-anchor="middle" font-family="Georgia, serif" font-size="30" font-weight="700" fill="#f6f1e7">Editing</text>
    </svg>
