<svg xmlns="http://www.w3.org/2000/svg" viewBox="0 0 480 700" width="480" height="700" fill="none"><rect width="480" height="700" fill="#20323a"/><rect x="16" y="16" width="448" height="668" rx="6" fill="none" stroke="#e0b877" stroke-width="2" opacity="0.5"/><rect x="0" y="0" width="14" height="700" fill="#000" opacity="0.14"/><rect x="150.0" y="190" width="180" height="8" rx="4" fill="#e0b877" opacity="0.9"/><rect x="150.0" y="214" width="158" height="8" rx="4" fill="#e0b877" opacity="0.78"/><rect x="150.0" y="238" width="136" height="8" rx="4" fill="#e0b877" opacity="0.66"/><rect x="150.0" y="262" width="114" height="8" rx="4" fill="#e0b877" opacity="0.54"/><rect x="150.0" y="286" width="92" height="8" rx="4" fill="#e0b877" opacity="0.42000000000000004"/><rect x="120.0" y="470" width="240" height="20" rx="6" fill="#fff" opacity="0.92"/><rect x="160.0" y="500" width="160" height="14" rx="6" fill="#fff" opacity="0.6"/><line x1="206.0" y1="560" x2="274.0" y2="560" stroke="#e0b877" stroke-width="3"/><rect x="180.0" y="588" width="120" height="12" rx="6" fill="#e0b877" opacity="0.9"/><circle cx="240.0" cy="648" r="12" fill="none" stroke="#e0b877" stroke-width="2.5"/><circle cx="240.0" cy="648" r="4" fill="#e0b877"/></svg>