<svg xmlns="http://www.w3.org/2000/svg" viewBox="0 0 480 700" width="480" height="700" fill="none"><rect width="480" height="700" fill="#2a2440"/><rect x="16" y="16" width="448" height="668" rx="6" fill="none" stroke="#c08a3e" stroke-width="2" opacity="0.5"/><rect x="0" y="0" width="14" height="700" fill="#000" opacity="0.14"/><circle cx="186.0" cy="196" r="7" fill="#c08a3e" opacity="0.9"/><circle cx="222.0" cy="196" r="7" fill="#c08a3e" opacity="0.8200000000000001"/><circle cx="258.0" cy="196" r="7" fill="#c08a3e" opacity="0.74"/><circle cx="294.0" cy="196" r="7" fill="#c08a3e" opacity="0.66"/><circle cx="186.0" cy="232" r="7" fill="#c08a3e" opacity="0.8200000000000001"/><circle cx="222.0" cy="232" r="7" fill="#c08a3e" opacity="0.74"/><circle cx="258.0" cy="232" r="7" fill="#c08a3e" opacity="0.66"/><circle cx="294.0" cy="232" r="7" fill="#c08a3e" opacity="0.5800000000000001"/><circle cx="186.0" cy="268" r="7" fill="#c08a3e" opacity="0.74"/><circle cx="222.0" cy="268" r="7" fill="#c08a3e" opacity="0.66"/><circle cx="258.0" cy="268" r="7" fill="#c08a3e" opacity="0.5800000000000001"/><circle cx="294.0" cy="268" r="7" fill="#c08a3e" opacity="0.5"/><circle cx="186.0" cy="304" r="7" fill="#c08a3e" opacity="0.66"/><circle cx="222.0" cy="304" r="7" fill="#c08a3e" opacity="0.5800000000000001"/><circle cx="258.0" cy="304" r="7" fill="#c08a3e" opacity="0.5"/><circle cx="294.0" cy="304" r="7" fill="#c08a3e" opacity="0.42000000000000004"/><rect x="120.0" y="470" width="240" height="20" rx="6" fill="#fff" opacity="0.92"/><rect x="160.0" y="500" width="160" height="14" rx="6" fill="#fff" opacity="0.6"/><line x1="206.0" y1="560" x2="274.0" y2="560" stroke="#c08a3e" stroke-width="3"/><rect x="180.0" y="588" width="120" height="12" rx="6" fill="#c08a3e" opacity="0.9"/><circle cx="240.0" cy="648" r="12" fill="none" stroke="#c08a3e" stroke-width="2.5"/><circle cx="240.0" cy="648" r="4" fill="#c08a3e"/></svg>