<svg xmlns="http://www.w3.org/2000/svg" viewBox="0 0 480 700" width="480" height="700" fill="none"><rect width="480" height="700" fill="#8a4b1f"/><rect x="16" y="16" width="448" height="668" rx="6" fill="none" stroke="#f0dcc0" stroke-width="2" opacity="0.5"/><rect x="0" y="0" width="14" height="700" fill="#000" opacity="0.14"/><line x1="240.0" y1="250" x2="240.0" y2="162" stroke="#f0dcc0" stroke-width="4" stroke-linecap="round" transform="rotate(0 240.0 250)"/><line x1="240.0" y1="250" x2="240.0" y2="162" stroke="#f0dcc0" stroke-width="4" stroke-linecap="round" transform="rotate(30 240.0 250)"/><line x1="240.0" y1="250" x2="240.0" y2="162" stroke="#f0dcc0" stroke-width="4" stroke-linecap="round" transform="rotate(60 240.0 250)"/><line x1="240.0" y1="250" x2="240.0" y2="162" stroke="#f0dcc0" stroke-width="4" stroke-linecap="round" transform="rotate(90 240.0 250)"/><line x1="240.0" y1="250" x2="240.0" y2="162" stroke="#f0dcc0" stroke-width="4" stroke-linecap="round" transform="rotate(120 240.0 250)"/><line x1="240.0" y1="250" x2="240.0" y2="162" stroke="#f0dcc0" stroke-width="4" stroke-linecap="round" transform="rotate(150 240.0 250)"/><line x1="240.0" y1="250" x2="240.0" y2="162" stroke="#f0dcc0" stroke-width="4" stroke-linecap="round" transform="rotate(180 240.0 250)"/><line x1="240.0" y1="250" x2="240.0" y2="162" stroke="#f0dcc0" stroke-width="4" stroke-linecap="round" transform="rotate(210 240.0 250)"/><line x1="240.0" y1="250" x2="240.0" y2="162" stroke="#f0dcc0" stroke-width="4" stroke-linecap="round" transform="rotate(240 240.0 250)"/><line x1="240.0" y1="250" x2="240.0" y2="162" stroke="#f0dcc0" stroke-width="4" stroke-linecap="round" transform="rotate(270 240.0 250)"/><line x1="240.0" y1="250" x2="240.0" y2="162" stroke="#f0dcc0" stroke-width="4" stroke-linecap="round" transform="rotate(300 240.0 250)"/><line x1="240.0" y1="250" x2="240.0" y2="162" stroke="#f0dcc0" stroke-width="4" stroke-linecap="round" transform="rotate(330 240.0 250)"/><circle cx="240.0" cy="250" r="40" fill="#f0dcc0" opacity="0.9"/><rect x="120.0" y="470" width="240" height="20" rx="6" fill="#fff" opacity="0.92"/><rect x="160.0" y="500" width="160" height="14" rx="6" fill="#fff" opacity="0.6"/><line x1="206.0" y1="560" x2="274.0" y2="560" stroke="#f0dcc0" stroke-width="3"/><rect x="180.0" y="588" width="120" height="12" rx="6" fill="#f0dcc0" opacity="0.9"/><circle cx="240.0" cy="648" r="12" fill="none" stroke="#f0dcc0" stroke-width="2.5"/><circle cx="240.0" cy="648" r="4" fill="#f0dcc0"/></svg>