<svg xmlns="http://www.w3.org/2000/svg" viewBox="0 0 480 700" width="480" height="700" fill="none" role="img" ><rect width="480" height="700" fill="#2a2440"/><rect x="16" y="16" width="448" height="668" rx="6" fill="none" stroke="#c08a3e" stroke-width="2" opacity="0.5"/><rect x="0" y="0" width="14" height="700" fill="#000" opacity="0.14"/><circle cx="186.0" cy="246" r="7" fill="#c08a3e" opacity="0.9"/><circle cx="222.0" cy="246" r="7" fill="#c08a3e" opacity="0.8200000000000001"/><circle cx="258.0" cy="246" r="7" fill="#c08a3e" opacity="0.74"/><circle cx="294.0" cy="246" r="7" fill="#c08a3e" opacity="0.66"/><circle cx="186.0" cy="282" r="7" fill="#c08a3e" opacity="0.8200000000000001"/><circle cx="222.0" cy="282" r="7" fill="#c08a3e" opacity="0.74"/><circle cx="258.0" cy="282" r="7" fill="#c08a3e" opacity="0.66"/><circle cx="294.0" cy="282" r="7" fill="#c08a3e" opacity="0.5800000000000001"/><circle cx="186.0" cy="318" r="7" fill="#c08a3e" opacity="0.74"/><circle cx="222.0" cy="318" r="7" fill="#c08a3e" opacity="0.66"/><circle cx="258.0" cy="318" r="7" fill="#c08a3e" opacity="0.5800000000000001"/><circle cx="294.0" cy="318" r="7" fill="#c08a3e" opacity="0.5"/><circle cx="186.0" cy="354" r="7" fill="#c08a3e" opacity="0.66"/><circle cx="222.0" cy="354" r="7" fill="#c08a3e" opacity="0.5800000000000001"/><circle cx="258.0" cy="354" r="7" fill="#c08a3e" opacity="0.5"/><circle cx="294.0" cy="354" r="7" fill="#c08a3e" opacity="0.42000000000000004"/><line x1="200.0" y1="440" x2="280.0" y2="440" stroke="#c08a3e" stroke-width="3"/><text x="240.0" y="520" text-anchor="middle" fill="#fff" font-family="Georgia, 'Playfair Display', serif" font-size="40" font-weight="700">Signal &</text><text x="240.0" y="566" text-anchor="middle" fill="#fff" font-family="Georgia, 'Playfair Display', serif" font-size="40" font-weight="700">Noise</text><text x="240.0" y="634" text-anchor="middle" fill="#c08a3e" font-family="Helvetica, Arial, sans-serif" font-size="19" letter-spacing="3">PRIYA RAMAN</text></svg>