<svg xmlns="http://www.w3.org/2000/svg" viewBox="0 0 480 700" width="480" height="700" fill="none" role="img" ><rect width="480" height="700" fill="#8a4b1f"/><rect x="16" y="16" width="448" height="668" rx="6" fill="none" stroke="#f0dcc0" stroke-width="2" opacity="0.5"/><rect x="0" y="0" width="14" height="700" fill="#000" opacity="0.14"/><line x1="240.0" y1="300" x2="240.0" y2="212" stroke="#f0dcc0" stroke-width="4" stroke-linecap="round" transform="rotate(0 240.0 300)"/><line x1="240.0" y1="300" x2="240.0" y2="212" stroke="#f0dcc0" stroke-width="4" stroke-linecap="round" transform="rotate(30 240.0 300)"/><line x1="240.0" y1="300" x2="240.0" y2="212" stroke="#f0dcc0" stroke-width="4" stroke-linecap="round" transform="rotate(60 240.0 300)"/><line x1="240.0" y1="300" x2="240.0" y2="212" stroke="#f0dcc0" stroke-width="4" stroke-linecap="round" transform="rotate(90 240.0 300)"/><line x1="240.0" y1="300" x2="240.0" y2="212" stroke="#f0dcc0" stroke-width="4" stroke-linecap="round" transform="rotate(120 240.0 300)"/><line x1="240.0" y1="300" x2="240.0" y2="212" stroke="#f0dcc0" stroke-width="4" stroke-linecap="round" transform="rotate(150 240.0 300)"/><line x1="240.0" y1="300" x2="240.0" y2="212" stroke="#f0dcc0" stroke-width="4" stroke-linecap="round" transform="rotate(180 240.0 300)"/><line x1="240.0" y1="300" x2="240.0" y2="212" stroke="#f0dcc0" stroke-width="4" stroke-linecap="round" transform="rotate(210 240.0 300)"/><line x1="240.0" y1="300" x2="240.0" y2="212" stroke="#f0dcc0" stroke-width="4" stroke-linecap="round" transform="rotate(240 240.0 300)"/><line x1="240.0" y1="300" x2="240.0" y2="212" stroke="#f0dcc0" stroke-width="4" stroke-linecap="round" transform="rotate(270 240.0 300)"/><line x1="240.0" y1="300" x2="240.0" y2="212" stroke="#f0dcc0" stroke-width="4" stroke-linecap="round" transform="rotate(300 240.0 300)"/><line x1="240.0" y1="300" x2="240.0" y2="212" stroke="#f0dcc0" stroke-width="4" stroke-linecap="round" transform="rotate(330 240.0 300)"/><circle cx="240.0" cy="300" r="40" fill="#f0dcc0" opacity="0.9"/><line x1="200.0" y1="440" x2="280.0" y2="440" stroke="#f0dcc0" stroke-width="3"/><text x="240.0" y="520" text-anchor="middle" fill="#fff" font-family="Georgia, 'Playfair Display', serif" font-size="40" font-weight="700">Field Notes</text><text x="240.0" y="566" text-anchor="middle" fill="#fff" font-family="Georgia, 'Playfair Display', serif" font-size="40" font-weight="700">on Wonder</text><text x="240.0" y="634" text-anchor="middle" fill="#f0dcc0" font-family="Helvetica, Arial, sans-serif" font-size="19" letter-spacing="3">AMARA BRIGHT</text></svg>